<?xml version="1.0" encoding="UTF-8" standalone="no"?>
<!DOCTYPE svg  PUBLIC '-//W3C//DTD SVG 1.1//EN'  'http://www.w3.org/Graphics/SVG/1.1/DTD/svg11.dtd'>
<svg xmlns="http://www.w3.org/2000/svg" version="1.1">
<defs>
<font id="PFDinTextCompPro-Thin" horiz-adv-x="353">
<font-face x-height="488" panose-1="2 0 0 0 0 0 0 0 0 0" units-per-em="1000" underline-thickness="50" ascent="800" descent="-200" cap-height="696" bbox="-52 -212 685 878" underline-position="-150" font-weight="200" unicode-range="U+0020-FB05" font-family="PF Din Text Comp Pro Thin"/>
<missing-glyph/>
<glyph unicode=" " horiz-adv-x="172" glyph-name="space"/>
<glyph d="M75 0v49h49v-49h-49zM81 160l-5 536h46l-5 -536h-36z" unicode="!" horiz-adv-x="199" glyph-name="exclam"/>
<glyph d="M39 526v170h36v-170h-36zM116 526v170h35v-170h-35z" unicode='&quot;' horiz-adv-x="190" glyph-name="quotedbl"/>
<glyph d="M99 253h116l37 194h-116zM210 223h-117l-41 -223h-33l42 223h-58v30h64l36 194h-54v31h60l43 224h33l-43 -224h116l42 224h33l-43 -224h59v-31h-65l-36 -194h53v-30h-59l-42 -223h-32z" unicode="#" glyph-name="numbersign"/>
<glyph d="M67 529q0 -23 4 -40.5t14 -32.5t28.5 -29.5t48.5 -29.5v263q-30 -3 -48.5 -16t-29 -31.5t-14 -40.5t-3.5 -43zM287 181q0 33 -3 55.5t-12.5 39.5t-29 31t-52.5 30v-303q32 3 51 15.5t29.5 32.5t13.5 45.5t3 53.5zM331 182q0 -41 -7 -74.5t-23.5 -58.5t-43.5 -39.5 t-67 -16.5v-97h-28v97q-77 4 -110 45.5t-34 103.5l44 9q0 -22 5 -42.5t17 -36t31 -26t47 -12.5v315q-46 21 -73.5 41.5t-42 41.5t-19 44.5t-4.5 51.5q0 36 8 66.5t25 53.5t43.5 36.5t62.5 16.5v90h28v-89q41 -2 68 -15.5t43.5 -34t23 -45.5t6.5 -49l-43 -11q0 45 -22 77.5 t-76 36.5v-277l12 -5q45 -19 71 -38.5t39 -42t16 -51t3 -65.5z" unicode="$" glyph-name="dollar"/>
<glyph d="M134 -17h-33l314 731h33zM170 624q0 20 -13.5 31t-36.5 11t-37 -11t-14 -31v-274q0 -19 14 -30t37 -11t36.5 11t13.5 30v274zM208 352q0 -38 -26.5 -57t-61.5 -19t-61.5 19t-26.5 57v271q0 38 26.5 57t61.5 19t61.5 -19t26.5 -57v-271zM479 344q0 20 -13.5 31t-36.5 11 t-37 -11t-14 -31v-273q0 -20 14 -30.5t37 -10.5t36.5 10.5t13.5 30.5v273zM517 72q0 -38 -26.5 -57t-61.5 -19t-61.5 19t-26.5 57v271q0 39 26.5 57.5t61.5 18.5t61.5 -18.5t26.5 -57.5v-271z" unicode="%" horiz-adv-x="550" glyph-name="percent"/>
<glyph d="M176 343q-51 -48 -70.5 -93t-19.5 -87q0 -56 28 -93.5t84 -37.5q27 0 59 16.5t58 54.5zM214 701q45 0 72.5 -12.5t45.5 -42.5l-38 -22q-12 21 -33 29t-45 8q-21 0 -36.5 -9t-25.5 -23.5t-15 -32.5t-5 -35q0 -28 8.5 -58.5t29.5 -67.5l167 -287q14 33 21 65.5t9 64.5h40 q-2 -40 -14 -86t-30 -84l64 -108h-51l-42 71q-20 -25 -38.5 -40t-37 -23.5t-36.5 -11.5t-36 -3q-30 0 -56 10.5t-45.5 31.5t-31 52.5t-11.5 74.5q0 120 111 216q-6 11 -14 24t-13 24q-20 35 -28.5 69.5t-8.5 66.5q0 29 8.5 54.5t24.5 44t39 29.5t51 11z" unicode="&amp;" horiz-adv-x="454" glyph-name="ampersand"/>
<glyph d="M52 526v170h36v-170h-36z" unicode="&apos;" horiz-adv-x="139" glyph-name="quotesingle"/>
<glyph d="M176 -115q-26 39 -48 86t-38.5 100t-26 110.5t-9.5 117.5q0 57 8.5 114t24.5 110.5t38 101.5t49 89l20 -9q-47 -88 -74 -193t-27 -208q0 -112 28 -218t73 -191z" unicode="(" horiz-adv-x="216" glyph-name="parenleft"/>
<glyph d="M54 -104q45 85 72.5 190t27.5 217q0 103 -27 208.5t-73 193.5l20 9q27 -41 49 -89.5t37.5 -102t24.5 -110.5t9 -114q0 -59 -9.5 -116.5t-26 -110.5t-39 -100t-47.5 -86z" unicode=")" horiz-adv-x="216" glyph-name="parenright"/>
<glyph d="M262 445l-34 -22l-65 107l-64 -108l-33 23l75 99l-115 35l13 39l110 -48l-7 124h41l-8 -124l112 48l13 -39l-116 -35z" unicode="*" horiz-adv-x="329" glyph-name="asterisk"/>
<glyph d="M193 275v-158h-35v158h-142v36h142v157h35v-157h143v-36h-143z" unicode="+" glyph-name="plus"/>
<glyph d="M62 -94h-26l19 92h-13v55h53v-54z" unicode="," horiz-adv-x="135" glyph-name="comma"/>
<glyph d="M49 266v41h234v-41h-234z" unicode="-" horiz-adv-x="321" glyph-name="hyphen"/>
<glyph d="M41 0v55h53v-55h-53z" unicode="." horiz-adv-x="135" glyph-name="period"/>
<glyph d="M41 -42h-35l186 767h35z" unicode="/" horiz-adv-x="231" glyph-name="slash"/>
<glyph d="M263 582q0 37 -24 58.5t-62 21.5t-62.5 -21.5t-24.5 -58.5v-469q0 -37 24.5 -58.5t62.5 -21.5t62 21.5t24 58.5v469zM306 114q0 -31 -10.5 -53.5t-28 -37.5t-41 -22.5t-49.5 -7.5t-49.5 7.5t-41 22.5t-28 37.5t-10.5 53.5v467q0 30 10.5 52.5t28 38t41 23t49.5 7.5 q27 0 50.5 -7.5t41 -23t27.5 -38t10 -52.5v-467z" unicode="0" glyph-name="zero"/>
<glyph d="M195 1v648l-107 -76v48l105 75h45v-695h-43z" unicode="1" glyph-name="one"/>
<glyph d="M178 662q-35 0 -61.5 -26t-26.5 -88l-42 7q2 74 36.5 110.5t95.5 36.5q70 0 100.5 -40.5t30.5 -106.5q0 -48 -9 -83t-28 -72l-179 -360h210v-40h-257v40l192 386q16 32 21 63t5 66q0 20 -3.5 39.5t-13 34.5t-26.5 24t-45 9z" unicode="2" glyph-name="two"/>
<glyph d="M180 702q36 0 60 -9.5t38.5 -27t20.5 -42t6 -53.5v-92q-1 -18 -3.5 -35t-9.5 -32.5t-19 -27.5t-32 -19v-1q22 -8 35 -21t19.5 -30.5t8 -38.5t1.5 -43v-103q0 -63 -33 -98.5t-98 -35.5q-56 0 -91.5 32.5t-35.5 104.5l43 12q0 -50 18.5 -79.5t66.5 -29.5q38 0 63 21t25 72 v116q0 56 -23.5 78t-59.5 22h-27v41h29q35 0 58 20.5t23 73.5v99q0 37 -20 61t-66 24t-66.5 -30t-20.5 -76q-11 2 -21.5 3.5t-21.5 3.5q1 63 34 101.5t99 38.5z" unicode="3" glyph-name="three"/>
<glyph d="M274 121v-120h-43v120h-205v39l145 536h43l-147 -536h164v195h43v-195h57v-39h-57z" unicode="4" glyph-name="four"/>
<glyph d="M178 -7q-58 0 -93 34t-36 108l43 7q0 -49 18.5 -79t68.5 -30q38 0 62 21.5t24 72.5l1 192q0 46 -24 66t-62 20q-26 0 -48.5 -11t-31.5 -31h-40v333h246v-38h-207v-248h3q32 32 91 32q55 0 85.5 -30.5t30.5 -81.5l-1 -202q-1 -64 -33 -99.5t-97 -35.5z" unicode="5" glyph-name="five"/>
<glyph d="M122 367q11 11 29.5 18.5t36.5 7.5q54 0 86 -31.5t32 -88.5v-158q0 -31 -10.5 -53.5t-28 -37.5t-41 -22.5t-49.5 -7.5t-49.5 7.5t-41 22.5t-28 37.5t-10.5 53.5v129q0 33 4.5 56.5t12.5 43.5l135 352h43q-7 -17 -18.5 -47.5t-25 -66.5t-27.5 -73t-25.5 -67.5t-19 -51 t-8.5 -22.5zM263 274q0 37 -24 58t-62 21q-21 0 -37.5 -8.5t-27.5 -22t-16.5 -31t-5.5 -35.5v-144q0 -37 24.5 -58t62.5 -21t62 21t24 58v162z" unicode="6" glyph-name="six"/>
<glyph d="M123 0h-42l187 658h-187v-86h-38v124h268v-36z" unicode="7" glyph-name="seven"/>
<glyph d="M263 583q0 37 -24 58t-62 21t-62.5 -21t-24.5 -58v-122q0 -37 24.5 -58.5t62.5 -21.5t62 21.5t24 58.5v122zM263 262q0 36 -24 58t-62 23q-38 0 -62.5 -22t-24.5 -59v-150q0 -37 24.5 -58t62.5 -21t62 21t24 58v150zM306 467q0 -40 -17 -66t-43 -40q26 -14 43 -40t17 -65 v-142q0 -31 -10.5 -53.5t-28 -37.5t-41 -22.5t-49.5 -7.5t-49.5 7.5t-41 22.5t-28 37.5t-10.5 53.5v142q0 39 16.5 65t43.5 40q-27 14 -43.5 40t-16.5 66v114q0 30 10.5 52.5t28 38t41 23t49.5 7.5t49.5 -7.5t41 -23t28 -38t10.5 -52.5v-114z" unicode="8" glyph-name="eight"/>
<glyph d="M231 329q-11 -11 -29.5 -18.5t-36.5 -7.5q-54 0 -85.5 31.5t-31.5 88.5v158q0 31 10.5 53.5t28 37.5t41 22.5t49.5 7.5q55 0 92 -29.5t37 -91.5v-129q0 -33 -5 -56.5t-12 -43.5l-135 -352h-44q7 17 18.5 47.5t25 66.5t27.5 73t25.5 67.5t19 51t8.5 22.5zM90 422 q0 -37 24 -58t62 -21q21 0 37.5 8.5t27.5 22t16.5 31t5.5 35.5v144q0 37 -24 58t-62 21t-62.5 -21t-24.5 -58v-162z" unicode="9" glyph-name="nine"/>
<glyph d="M42 0v55h53v-55h-53zM42 306v56h53v-56h-53z" unicode=":" horiz-adv-x="135" glyph-name="colon"/>
<glyph d="M41 306v55h53v-55h-53zM62 -94h-26l19 92h-13v55h53v-54z" unicode=";" horiz-adv-x="135" glyph-name="semicolon"/>
<glyph d="M16 277v33l319 177v-38l-284 -156l284 -154v-39z" unicode="&lt;" glyph-name="less"/>
<glyph d="M16 199v37h320v-37h-320zM16 344v36h320v-36h-320z" unicode="=" glyph-name="equal"/>
<glyph d="M17 100v39l284 154l-284 156v38l319 -177v-33z" unicode="&gt;" glyph-name="greater"/>
<glyph d="M163 0v49h49v-49h-49zM172 702q42 0 71 -12t46 -33.5t24.5 -50.5t7.5 -63q0 -25 -2 -43t-5 -32t-8 -25t-11 -22q-6 -13 -15.5 -28.5l-19 -31t-18 -28.5t-12.5 -21q-9 -15 -15.5 -36.5t-6.5 -42.5v-73h-42v81q0 17 6 41.5t17 41.5q20 34 37 61t31 53q14 24 17 49t3 53 q0 57 -24 89t-82 32q-38 0 -68 -27t-32 -84q-11 2 -21.5 3.5t-21.5 3.5q2 69 42.5 107t101.5 38z" unicode="?" horiz-adv-x="343" glyph-name="question"/>
<glyph d="M363 355q-34 0 -56.5 -20.5t-22.5 -69.5q0 -13 4.5 -26t13 -23.5t22 -17t31.5 -6.5q32 0 52.5 20.5t20.5 53.5v89h-65zM467 261q0 -38 20.5 -57.5t46.5 -19.5q20 0 40 7.5t36.5 29t27 60.5t10.5 102q0 67 -20 120t-55 90t-83 56t-105 19q-75 0 -130 -26t-91 -71 t-53.5 -105.5t-17.5 -130.5q0 -77 18.5 -139t55.5 -106t92 -68t128 -24q42 0 86 8t83 31q3 -8 6.5 -16.5t7.5 -16.5q-41 -17 -86.5 -29t-91.5 -12q-79 0 -141.5 23.5t-106 70t-66.5 116t-23 162.5q0 82 21.5 150t63 116.5t102.5 75t140 26.5q74 0 130.5 -24t95 -66.5 t58 -101.5t19.5 -128q0 -70 -13.5 -115t-35.5 -71.5t-48.5 -37t-53.5 -10.5q-7 0 -19.5 2.5t-26.5 9.5t-26.5 19t-18.5 32h-1q-9 -17 -22 -27.5t-27 -16.5t-27.5 -8t-24.5 -2q-26 0 -44 9t-29 24t-16 34.5t-5 40.5t5.5 43t18.5 39.5t34.5 28.5t52.5 11h70v52 q0 30 -14.5 49.5t-55.5 19.5q-25 0 -42.5 -11.5t-23.5 -31.5q-9 2 -18 5.5t-18 6.5q11 28 37.5 47t66.5 19q22 0 42 -5t34 -17t22.5 -31.5t8.5 -48.5v-181z" unicode="@" horiz-adv-x="739" glyph-name="at"/>
<glyph d="M187 634l-37 -174l-52 -238h179l-52 240l-36 172h-2zM325 0l-40 182h-194l-40 -182h-41l153 696h49l156 -696h-43z" unicode="A" horiz-adv-x="376" glyph-name="A"/>
<glyph d="M319 523q0 65 -29 99.5t-100 34.5h-95v-271h112q63 0 87.5 35.5t24.5 101.5zM327 205q0 69 -27.5 106.5t-87.5 37.5h-117v-309h103q39 0 64.5 13.5t39.5 36t19.5 52.5t5.5 63zM286 366q48 -16 65.5 -60t17.5 -104q0 -55 -12 -93.5t-34.5 -62.5t-54 -35t-71.5 -11h-145 v696h146q45 0 76.5 -11.5t50.5 -34t27.5 -54.5t8.5 -73q0 -54 -15 -94t-60 -61v-2z" unicode="B" horiz-adv-x="410" glyph-name="B"/>
<glyph d="M199 702q32 0 60 -9t48.5 -27.5t32 -46.5t11.5 -66l-43 -9q0 62 -30.5 90t-78.5 28q-55 0 -82.5 -34.5t-27.5 -87.5v-392q0 -51 27.5 -83t82.5 -32q22 0 41.5 6.5t34.5 20.5t24 36.5t9 54.5l43 -8q0 -39 -12.5 -67.5t-33 -47t-48 -27t-58.5 -8.5q-72 0 -112.5 38.5 t-40.5 115.5v390q0 75 37.5 120t115.5 45z" unicode="C" horiz-adv-x="383" glyph-name="C"/>
<glyph d="M317 518q0 30 -5 55.5t-18.5 44t-36.5 29t-58 10.5h-104v-617h105q61 0 89 32t28 103v343zM202 696q63 0 99 -22t50 -73q11 -36 11 -96q0 -3 -0.5 -36t-0.5 -120v-151.5t-11 -101.5q-9 -30 -25 -48.5t-36.5 -29t-44.5 -14.5t-51 -4h-141v696h150z" unicode="D" horiz-adv-x="404" glyph-name="D"/>
<glyph d="M52 0v696h284v-40h-241v-279h212v-39h-212v-298h241v-40h-284z" unicode="E" horiz-adv-x="355" glyph-name="E"/>
<glyph d="M53 0v696h283v-40h-240v-279h212v-39h-212v-338h-43z" unicode="F" glyph-name="F"/>
<glyph d="M200 -7q-72 0 -112.5 38t-40.5 115v351v29.5t1 29.5q3 69 41.5 107.5t110.5 38.5q65 0 107.5 -35.5t43.5 -112.5l-43 -10v3q0 60 -30.5 87.5t-78.5 27.5q-55 0 -82 -35t-27 -87v-393q0 -51 27.5 -82.5t82.5 -31.5q23 0 43.5 7.5t36.5 21.5t25 34t9 45v180h-86v39h129 v-216q0 -37 -12.5 -65t-34.5 -47t-50.5 -29t-59.5 -10z" unicode="G" horiz-adv-x="395" glyph-name="G"/>
<glyph d="M317 0v337h-222v-337h-43v696h43v-320h222v320h43v-696h-43z" unicode="H" horiz-adv-x="412" glyph-name="H"/>
<glyph d="M65 0v696h44v-696h-44z" unicode="I" horiz-adv-x="174" glyph-name="I"/>
<glyph d="M252 696v-546q0 -75 -40 -116t-118 -41q-26 0 -54.5 7t-45.5 26l25 33q15 -12 36 -19t41 -7q19 0 39 5.5t36.5 18.5t27 35.5t10.5 56.5v547h43z" unicode="J" horiz-adv-x="321" glyph-name="J"/>
<glyph d="M345 0l-154 374l-97 -179v-195h-42v696h42v-418h2l221 418h45l-144 -274l174 -422h-47z" unicode="K" horiz-adv-x="397" glyph-name="K"/>
<glyph d="M53 0v696h43v-656h228v-40h-271z" unicode="L" horiz-adv-x="333" glyph-name="L"/>
<glyph d="M435 575q-18 -51 -37 -100.5t-38 -100.5l-81 -212h-30q-20 53 -39.5 105t-39.5 104l-73 199h-4v-570h-43v696h44q23 -60 44.5 -118.5t43.5 -118.5l81 -223h3l83 224q3 7 10 25.5t15.5 42t18.5 50.5t19 50.5t15.5 42t9.5 25.5h43v-696h-42v575h-3z" unicode="M" horiz-adv-x="532" glyph-name="M"/>
<glyph d="M92 577v-577h-42v696h40q38 -90 76 -178.5t76 -178.5l93 -222h4v579h42v-696h-41q-38 89 -75.5 177.5t-75.5 177.5q-24 56 -47.5 111t-46.5 111h-3z" unicode="N" horiz-adv-x="431" glyph-name="N"/>
<glyph d="M315 546q0 52 -29.5 84.5t-83.5 32.5q-29 0 -50 -10.5t-35.5 -28t-21.5 -40.5t-7 -48v-390q0 -51 29.5 -82.5t83.5 -31.5q58 0 86 33t28 88v393zM358 156q0 -81 -42.5 -122t-114.5 -41t-113.5 39t-41.5 115v391q0 75 39.5 119.5t116.5 44.5t116.5 -41t39.5 -119v-386z " unicode="O" horiz-adv-x="403" glyph-name="O"/>
<glyph d="M95 336h87q79 0 109.5 41.5t30.5 121.5q0 34 -6 63t-21.5 50t-42.5 33t-68 12h-89v-321zM188 696q52 0 86.5 -14.5t54 -40t27.5 -62t8 -79.5q0 -45 -8.5 -82.5t-29 -64t-55 -41.5t-86.5 -15h-90v-296h-43v695h136z" unicode="P" horiz-adv-x="386" glyph-name="P"/>
<glyph d="M315 546q0 52 -29.5 84.5t-83.5 32.5q-29 0 -50 -10.5t-35.5 -28t-21.5 -40.5t-7 -48v-390q0 -51 29.5 -82.5t83.5 -31.5q50 0 77 24l-67 52l23 29l66 -51q15 27 15 67v393zM358 156q0 -57 -23 -97l62 -46l-23 -29l-62 46q-40 -37 -110 -37q-72 0 -114 39t-42 115v391 q0 75 39.5 119.5t116.5 44.5t116.5 -41t39.5 -119v-386z" unicode="Q" horiz-adv-x="402" glyph-name="Q"/>
<glyph d="M95 657v-300h86q74 0 106 36t32 117q0 34 -7 61.5t-23 46.5t-42.5 29t-66.5 10h-85zM187 696q49 0 83 -12.5t54 -36.5t29 -58.5t9 -78.5q0 -21 -3 -37q-5 -54 -29.5 -91t-75.5 -53q12 -38 26.5 -80t28.5 -85t28.5 -84.5t26.5 -79.5h-46l-105 320q-9 -1 -19 -1h-20h-79 v-319h-43v696h135z" unicode="R" horiz-adv-x="397" glyph-name="R"/>
<glyph d="M347 182q0 -43 -8 -78t-26 -59.5t-48 -38t-75 -13.5q-42 0 -71.5 11.5t-48.5 31.5t-27.5 47t-9.5 59l44 9q0 -23 6 -44.5t19.5 -37.5t35 -25.5t52.5 -9.5q37 0 59.5 12t34.5 32t15.5 47t3.5 56q0 35 -3.5 58.5t-15 41t-34 32t-61.5 31.5q-50 22 -80 43t-45.5 42.5 t-20 45.5t-4.5 53q0 38 9 70t28 55t48 36t70 13q45 0 74.5 -13t47 -34t24.5 -46.5t7 -50.5l-44 -11q0 24 -5.5 44.5t-18.5 36t-34.5 24.5t-52.5 9q-34 0 -55.5 -12.5t-33.5 -32t-16 -42.5t-4 -45q0 -26 5 -45.5t19 -36.5t40 -33t70 -35q45 -19 71 -38.5t39 -42t16.5 -51 t3.5 -65.5z" unicode="S" horiz-adv-x="378" glyph-name="S"/>
<glyph d="M181 657v-657h-44v657h-132v39h308v-39h-132z" unicode="T" horiz-adv-x="319" glyph-name="T"/>
<glyph d="M352 695v-539q0 -81 -42 -122t-114 -41t-114 39t-42 115v548h43v-549q0 -51 29.5 -82.5t83.5 -31.5q57 0 85 33t28 88v542h43z" unicode="U" horiz-adv-x="393" glyph-name="U"/>
<glyph d="M213 0h-53l-148 696h43l91 -442l39 -201h2l40 200l92 443h44z" unicode="V" horiz-adv-x="378" glyph-name="V"/>
<glyph d="M452 0h-51l-76 407l-33 191h-3l-33 -193l-76 -405h-50l-117 696h43l65 -398l34 -233h3l39 231l74 400h41l73 -404l40 -227h2l33 227l66 404h43z" unicode="W" horiz-adv-x="582" glyph-name="W"/>
<glyph d="M293 0l-120 304l-121 -304h-46l144 354l-140 341h47l116 -294l116 294h47l-142 -341l146 -354h-47z" unicode="X" horiz-adv-x="347" glyph-name="X"/>
<glyph d="M174 353l48 141q17 51 35 101t35 101h45l-143 -403v-293h-42v293l-143 403h44l70 -203l48 -140h3z" unicode="Y" horiz-adv-x="350" glyph-name="Y"/>
<glyph d="M289 657l-234 -617h223v-40h-266v39l234 618h-215v39h258v-39z" unicode="Z" horiz-adv-x="304" glyph-name="Z"/>
<glyph d="M62 -108v804h117v-32h-76v-740h76v-32h-117z" unicode="[" horiz-adv-x="197" glyph-name="bracketleft"/>
<glyph d="M174 -30l-166 747h36l165 -747h-35z" unicode="\" horiz-adv-x="216" glyph-name="backslash"/>
<glyph d="M46 -108v32h76v740h-76v32h116v-804h-116z" unicode="]" horiz-adv-x="197" glyph-name="bracketright"/>
<glyph d="M161 694h34l153 -318h-38l-133 280l-131 -280h-38z" unicode="^" glyph-name="asciicircum"/>
<glyph d="M0 -120v37h500v-37h-500z" unicode="_" horiz-adv-x="500" glyph-name="underscore"/>
<glyph d="M213 556l-88 144l45 17l67 -151z" unicode="`" horiz-adv-x="342" glyph-name="grave"/>
<glyph d="M38 414q14 38 47 60t85 22q63 0 97 -28.5t34 -101.5v-366h-43v44h-1q-24 -33 -54.5 -41.5t-59.5 -8.5q-33 0 -55.5 11.5t-36.5 30.5t-20.5 43.5t-6.5 51.5q0 28 6.5 55.5t22.5 50t42.5 36.5t66.5 14h96v78q0 20 -4 36.5t-14 28.5t-27.5 19t-44.5 7q-29 0 -55 -14t-34 -42 zM171 248q-22 0 -41 -6t-33 -20t-22 -36.5t-8 -54.5q0 -40 20.5 -68.5t71.5 -28.5q43 0 71 23.5t28 69.5v121h-87z" unicode="a" horiz-adv-x="343" glyph-name="a"/>
<glyph d="M191 -6q-41 0 -65.5 13.5t-41.5 38.5h-2v-46h-42v726h42v-294h2q17 30 47.5 47t62.5 17q47 0 71.5 -19t36.5 -47q8 -24 11 -60t3 -76v-70q0 -27 -1 -55.5t-4 -59.5q-3 -35 -16 -57.5t-30 -35.5t-37 -17.5t-37 -4.5zM180 34q29 0 51 13.5t33 48.5q5 17 6.5 53.5t1.5 83.5 q0 25 -0.5 50.5t-1.5 48.5t-3 41t-6 29q-9 27 -29 40t-49 13q-25 0 -44 -10.5t-31.5 -27.5t-19 -38.5t-6.5 -43.5v-196q0 -47 27 -76t71 -29z" unicode="b" horiz-adv-x="347" glyph-name="b"/>
<glyph d="M175 496q63 0 96 -33t33 -96q-11 -2 -22 -3.5t-22 -3.5q1 46 -22 71.5t-66 25.5q-27 0 -48.5 -12t-34.5 -41q-8 -19 -10 -65t-2 -106v-13q0 -18 0.5 -37t1.5 -37t2.5 -33t4.5 -24q9 -27 30 -42t54 -15q41 0 65.5 22.5t24.5 72.5l44 -8q-2 -63 -37 -94.5t-97 -31.5 q-30 0 -52.5 7.5t-37.5 19.5t-24 27.5t-13 32.5q-3 12 -5 31t-2.5 41t-1 44.5t-0.5 42.5q0 27 0.5 54t2 51t4.5 43.5t7 31.5q13 35 43 56t84 21z" unicode="c" horiz-adv-x="329" glyph-name="c"/>
<glyph d="M157 -6q-19 0 -38.5 4.5t-37 17.5t-29.5 35.5t-16 57.5q-3 32 -3 62v57v14q0 57 1.5 103.5t12.5 75.5q11 31 37.5 53t78.5 22q40 0 66 -19t34 -37h2v286h43v-726h-43v46h-2q-17 -25 -41.5 -38.5t-64.5 -13.5zM167 34q45 0 71.5 29t26.5 76v202q0 22 -6 42.5t-18 36 t-30 25t-42 9.5q-30 0 -52.5 -16t-30.5 -47q-3 -11 -5 -28t-2.5 -38.5t-1 -45t-0.5 -46.5q0 -47 1.5 -83.5t6.5 -53.5q10 -35 30.5 -48.5t51.5 -13.5z" unicode="d" horiz-adv-x="348" glyph-name="d"/>
<glyph d="M88 404q-7 -17 -8.5 -50.5t-2.5 -79.5h185v61q0 23 -2.5 45t-12 39t-27.5 27t-48 10q-25 0 -48 -11t-36 -41zM174 496q60 0 93.5 -30.5t36.5 -87.5q1 -11 1 -21.5v-21.5v-97h-228v-32q0 -32 1.5 -66.5t7.5 -51.5q9 -26 29 -41t54 -15q45 0 66.5 26t24.5 64l43 -8 q-5 -59 -41 -90t-93 -31q-30 0 -52.5 7.5t-37.5 19.5t-24 27.5t-13 32.5q-3 12 -5 31t-2.5 40.5t-1 44.5t-0.5 43q0 27 0.5 54t2 51t4.5 44t7 32q13 35 43 55.5t84 20.5z" unicode="e" horiz-adv-x="342" glyph-name="e"/>
<glyph d="M110 452v-452h-44v452h-54v37h54v126q0 60 30 85.5t76 25.5h25v-39h-20q-37 0 -52 -20t-15 -52v-126h83v-37h-83z" unicode="f" horiz-adv-x="197" glyph-name="f"/>
<glyph d="M170 455q-28 0 -50 -13.5t-33 -48.5q-5 -17 -6.5 -53.5t-1.5 -83.5q0 -25 0.5 -50.5t1.5 -48.5t3 -41.5t6 -28.5q9 -27 29 -40t49 -13q25 0 44 10.5t31.5 27.5t19 38.5t6.5 43.5v196q0 47 -27 76t-72 29zM160 496q41 0 65.5 -14t41.5 -39h2v46h42v-561q0 -62 -37 -95.5 t-100 -33.5q-56 0 -91.5 30.5t-37.5 90.5l44 8q0 -42 22 -66t66 -24t68 28.5t24 70.5v120h-2q-17 -30 -47.5 -46.5t-62.5 -16.5q-48 0 -72.5 19.5t-35.5 47.5q-10 26 -12 65t-2 79v54q0 29 0.5 58.5t3.5 62.5q3 35 16 57.5t30.5 35.5t37.5 18t37 5z" unicode="g" horiz-adv-x="356" glyph-name="g"/>
<glyph d="M86 435h1q17 29 46 45t63 16t57 -10t37 -28t20 -42t6 -52v-364h-44v351q0 21 -4 40t-14.5 32.5t-27.5 21.5t-43 8q-24 0 -42 -9t-30.5 -24.5t-19 -35.5t-6.5 -41v-343h-42v727h43v-292z" unicode="h" horiz-adv-x="358" glyph-name="h"/>
<glyph d="M55 0v489h43v-489h-43zM54 608v48h45v-48h-45z" unicode="i" horiz-adv-x="155" glyph-name="i"/>
<glyph d="M54 656h45v-48h-45v48zM55 489h42v-562q0 -29 -4 -52.5t-15 -40.5t-30 -26.5t-50 -9.5h-13v38h7q40 0 51.5 21.5t11.5 62.5v569z" unicode="j" horiz-adv-x="149" glyph-name="j"/>
<glyph d="M84 200h1l181 288h48l-114 -180l141 -308h-48l-120 268l-89 -141v-127h-42v726h42v-526z" unicode="k" horiz-adv-x="346" glyph-name="k"/>
<glyph d="M49 726h42v-611q0 -38 12.5 -60.5t50.5 -22.5h12v-39h-15q-50 0 -76 24t-26 88v621z" unicode="l" horiz-adv-x="168" glyph-name="l"/>
<glyph d="M193 496q46 0 71 -19.5t36 -50.5q16 32 47 51t67 19q33 0 55.5 -10.5t36 -28.5t19.5 -42t6 -51v-364h-43v350q0 19 -4 38t-13.5 33t-26.5 23t-43 9q-23 0 -40 -8.5t-28.5 -23.5t-17.5 -35t-6 -42v-344h-42v350q0 19 -3.5 38t-12.5 33t-25.5 23t-41.5 9t-43 -9t-30 -24.5 t-17.5 -35.5t-5.5 -42v-342h-43v489h43v-55h3q17 29 42 45.5t60 16.5z" unicode="m" horiz-adv-x="577" glyph-name="m"/>
<glyph d="M85 435h2q17 29 45.5 45t62.5 16t57 -10t37 -28t20 -42t6 -52v-364h-44v351q0 21 -4 40t-14 32.5t-27 21.5t-42 8q-24 0 -42.5 -9.5t-31.5 -25t-19.5 -35.5t-6.5 -41v-342h-42v489h43v-54z" unicode="n" horiz-adv-x="357" glyph-name="n"/>
<glyph d="M175 457q-26 0 -50 -10.5t-36 -40.5q-8 -20 -10 -62.5t-2 -98.5v-25q0 -48 1.5 -81t7.5 -51q9 -27 30.5 -41.5t58.5 -14.5q33 0 57 18t32 50q4 17 5.5 54t1.5 79q0 22 -0.5 47t-1 48t-2.5 41.5t-5 28.5q-9 30 -32.5 44.5t-54.5 14.5zM176 496q55 0 84 -21t40 -53 q5 -13 7.5 -34.5t4 -47t1.5 -52v-49.5v-15q0 -26 -0.5 -53t-3.5 -59q-3 -35 -16.5 -58t-33 -36.5t-42.5 -19t-45 -5.5q-60 0 -89.5 24.5t-40.5 62.5q-3 12 -5 30.5t-3 40.5t-1 45v43q0 27 0.5 53.5t2 50.5t4.5 43.5t7 31.5q13 35 44 56.5t85 21.5z" unicode="o" horiz-adv-x="349" glyph-name="o"/>
<glyph d="M188 495q18 0 38 -5t37 -18t29.5 -35.5t15.5 -57.5q3 -32 3.5 -61.5t0.5 -57.5v-14q0 -57 -2 -102t-13 -77q-11 -31 -37.5 -52.5t-78.5 -21.5q-40 0 -66 18.5t-34 36.5h-2v-242h-42v682h42v-46h2q17 25 41.5 39t65.5 14zM178 454q-45 0 -72 -29t-27 -76v-202 q0 -22 6 -42.5t18 -36t30 -25t42 -9.5q30 0 53 16t31 47q3 10 4.5 27.5t2.5 39t1 45v46.5q0 47 -1.5 83.5t-6.5 53.5q-10 35 -30 48.5t-51 13.5z" unicode="p" horiz-adv-x="349" glyph-name="p"/>
<glyph d="M160 496q41 0 65.5 -14t41.5 -39h2v46h42v-685h-42v253h-2q-17 -30 -47.5 -46.5t-62.5 -16.5q-49 1 -74 21t-36 51q-8 25 -10 62.5t-2 76.5v68q0 25 0.5 51t3.5 56q3 35 16 57.5t30.5 35.5t37.5 18t37 5zM170 455q-28 0 -50 -13.5t-33 -48.5q-5 -17 -6.5 -53.5 t-1.5 -83.5q0 -25 0.5 -50.5t1.5 -48.5t3 -41.5t6 -28.5q9 -27 29 -40t49 -13q25 0 44 10.5t31.5 27.5t19 38.5t6.5 43.5v196q0 47 -27 76t-72 29z" unicode="q" horiz-adv-x="355" glyph-name="q"/>
<glyph d="M228 446q-6 1 -12.5 1.5t-12.5 0.5q-50 0 -77.5 -34t-27.5 -97v-317h-43v489h43v-67h2q16 39 43 56.5t65 17.5h10t10 -1v-49z" unicode="r" horiz-adv-x="234" glyph-name="r"/>
<glyph d="M69 125q0 -42 23.5 -67t65.5 -25q53 0 73 25t20 70q0 22 -3.5 37.5t-13.5 28t-28 23t-48 21.5q-39 15 -64 30t-38.5 31.5t-18.5 34.5t-5 38q0 55 32 90t101 35q63 0 97.5 -32.5t34.5 -93.5l-45 -7q0 45 -23.5 69t-65.5 24q-26 0 -43 -7.5t-26.5 -19.5t-13.5 -27t-4 -31 t4 -29t15.5 -24.5t32.5 -22.5t54 -23q38 -14 60 -29t33.5 -32.5t15 -38t3.5 -44.5q0 -30 -7 -55t-23 -43t-41.5 -28t-62.5 -10q-64 0 -98.5 31t-36.5 94z" unicode="s" horiz-adv-x="322" glyph-name="s"/>
<glyph d="M18 489h56v134h43v-134h74v-35h-74v-339q0 -37 15.5 -56.5t52.5 -19.5h11v-39h-19q-103 0 -103 110v344h-56v35z" unicode="t" horiz-adv-x="219" glyph-name="t"/>
<glyph d="M273 55h-3q-17 -29 -45 -45.5t-63 -16.5q-34 0 -57 10.5t-36.5 28.5t-19.5 42t-6 51v365h44v-351q0 -23 4 -42t13.5 -32.5t26.5 -21.5t43 -8q23 0 41.5 9.5t31 25t19.5 35.5t7 41v344h43v-490h-43v55z" unicode="u" horiz-adv-x="358" glyph-name="u"/>
<glyph d="M130 0q-32 123 -63 244.5t-62 244.5h45q14 -54 27 -107t26 -107q12 -51 24.5 -105t25.5 -105h3q12 51 24.5 105.5t25.5 105.5q14 54 26 106.5t25 106.5h46l-126 -489h-47z" unicode="v" horiz-adv-x="310" glyph-name="v"/>
<glyph d="M262 410l-92 -410h-45q-29 123 -57.5 244.5t-57.5 244.5h45q2 -10 9.5 -42.5t17 -76t20.5 -92t20.5 -92t16.5 -76t9 -42.5h2q3 16 10.5 50t17 76.5t20 89.5t19.5 88.5t15.5 73t9.5 43.5h45l34 -155q14 -66 28.5 -133.5t29.5 -133.5h2q12 53 23.5 108.5t22.5 108.5l46 205 h45l-115 -489h-45l-34 147q-15 64 -30 131t-29 132h-3z" unicode="w" horiz-adv-x="525" glyph-name="w"/>
<glyph d="M242 0l-94 212l-95 -212h-47l116 251l-109 238h48l87 -201l88 201h49l-111 -238l116 -251h-48z" unicode="x" horiz-adv-x="295" glyph-name="x"/>
<glyph d="M158 68q14 51 27 105.5t26 106.5l55 209h44l-147 -549q-8 -32 -18 -59q-11 -34 -35.5 -56.5t-65.5 -22.5h-15v38h12q32 0 49 23t27 64q5 19 9.5 37.5t9.5 37.5q-33 122 -65.5 243t-64.5 244h46l52 -210l52 -211h2z" unicode="y" horiz-adv-x="315" glyph-name="y"/>
<glyph d="M267 451l-206 -412h201v-39h-248v39l206 412h-186v37h233v-37z" unicode="z" horiz-adv-x="281" glyph-name="z"/>
<glyph d="M93 133q0 65 -10.5 101.5t-52.5 47.5v25q20 5 32.5 18t19 31t9 40t2.5 44v135q0 8 0.5 15.5t1.5 15.5q3 44 25 67t58 23h18v-28h-14q-18 0 -28.5 -9t-16 -23.5t-7 -31t-1.5 -31.5v-134q0 -62 -18 -98.5t-41 -44.5v-2q26 -8 42.5 -43t16.5 -93v-145q0 -14 1.5 -30.5 t7 -30.5t16 -23t28.5 -9h14v-29h-18q-39 0 -62 27t-23 76v139z" unicode="{" horiz-adv-x="213" glyph-name="braceleft"/>
<glyph d="M74 -162v878h33v-878h-33z" unicode="|" horiz-adv-x="176" glyph-name="bar"/>
<glyph d="M134 -6q0 -49 -23.5 -76t-62.5 -27h-18v29h14q18 0 28.5 9t16 23t7.5 30.5t2 30.5v145q0 58 16 93t42 43v2q-23 8 -40.5 44.5t-17.5 98.5v134q0 15 -2 31.5t-7.5 31t-16 23.5t-28.5 9h-14v28h25q23 0 38 -10.5t24 -27.5t12.5 -38.5t3.5 -44.5v-135q0 -22 2.5 -44t9.5 -40 t19.5 -31t31.5 -18v-25q-42 -11 -52 -47.5t-10 -101.5v-139z" unicode="}" horiz-adv-x="213" glyph-name="braceright"/>
<glyph d="M100 282q23 0 43.5 -7t40 -16t37 -16t34.5 -7q18 0 31.5 6.5t31.5 29.5l25 -17q-15 -26 -37 -41.5t-51 -15.5q-19 0 -38 7t-38.5 16t-39.5 16t-40 7q-17 0 -31 -7t-30 -26l-23 19q14 23 35.5 37.5t49.5 14.5z" unicode="~" glyph-name="asciitilde"/>
<glyph d="M124 491v-50h-49v50h49zM117 330l5 -534h-46l5 534h36z" unicode="¡" horiz-adv-x="199" glyph-name="exclamdown"/>
<glyph d="M181 496q-5 0 -9 -0.5t-9 -0.5v111h24v-110h-6zM206 36q58 12 60 91l44 -8q-2 -60 -34 -91.5t-89 -34.5v39h-10h-14v424l-10 -3q-17 -3 -33.5 -14.5t-24.5 -34.5q-8 -22 -9.5 -66.5t-1.5 -104.5v-13q0 -18 0.5 -37t1 -37t2.5 -33t5 -24q8 -24 25 -39t45 -18v-38 q-54 3 -80 28.5t-34 57.5q-5 20 -6.5 56.5t-1.5 72.5q0 29 0.5 60t1.5 59t3.5 52t7.5 39q10 32 37 52t72 24v-39q5 1 15 1q2 0 4.5 -0.5t4.5 -0.5v40q60 -2 92 -35t32 -94l-45 -7q0 45 -19.5 69.5t-59.5 26.5v-424q5 0 9.5 1t9.5 3zM187 -7v-107h-24v108q4 -1 13 -1h11z" unicode="¢" glyph-name="cent"/>
<glyph d="M181 703q30 0 57 -8.5t47 -26.5t31 -46t11 -67l-43 -10q1 61 -27 89.5t-76 28.5q-47 0 -72.5 -28t-25.5 -73q0 -24 5 -47t12 -47t14 -50.5t12 -57.5h107v-37h-103q1 -8 1.5 -18t0.5 -18q0 -77 -15.5 -134t-42.5 -113h242v-40h-290v40q30 56 46.5 117t16.5 131q0 17 -3 35 h-62v37h59q-5 29 -13 56.5t-15 52t-12 47t-5 42.5q0 66 37.5 105.5t105.5 39.5z" unicode="£" glyph-name="sterling"/>
<glyph d="M123 322q0 -26 9.5 -48.5t27 -39.5t40 -27t48.5 -10q25 0 48 10t40 27t27 39.5t10 48.5t-10 49t-27 40t-39.5 27t-48.5 10t-48.5 -10t-40 -27t-27 -40t-9.5 -49zM65 476l27 28l53 -54q43 37 102 37q56 0 101 -36l52 53l27 -28l-52 -52q36 -45 36 -102q0 -56 -36 -100 l10 -10t16.5 -17t16.5 -16.5t10 -9.5l-14 -14l-14 -14l-52 53q-43 -35 -101 -35q-29 0 -54.5 9t-47.5 26l-10 -10l-17 -17t-16.5 -17t-9.5 -10q-8 8 -17 17.5t-11 10.5l54 54q-35 43 -35 100q0 58 35 102z" unicode="¤" horiz-adv-x="493" glyph-name="currency"/>
<glyph d="M204 315h114v-30h-121v-73h121v-31h-121v-181h-40v181h-115v31h115v73h-115v30h107l-126 381h42l110 -346h3l110 346h43z" unicode="¥" glyph-name="yen"/>
<glyph d="M107 249v-411h-33v411h33zM74 303v413h33v-413h-33z" unicode="¦" horiz-adv-x="176" glyph-name="brokenbar"/>
<glyph d="M325 287q0 45 -40 79.5t-120 75.5q-29 -11 -51.5 -34.5t-22.5 -59.5q0 -20 10.5 -37.5t26.5 -32t36 -27.5t40 -24l53 -32q28 13 48 39.5t20 52.5zM366 290q0 -35 -21.5 -67t-56.5 -55q29 -29 41 -55.5t12 -53.5q0 -4 -0.5 -7t-1.5 -7q-4 -57 -47 -89t-109 -32 q-32 0 -66 12t-61 32q10 15 23 29q26 -19 50.5 -28t53.5 -9q55 0 85.5 26.5t30.5 67.5q0 38 -29.5 71.5t-98.5 73.5q-61 35 -91 68t-30 79q0 41 22 71t57 50q-31 25 -43 49.5t-12 53.5q0 28 9.5 52t27.5 42t43 28t57 10q39 0 70 -11t60 -34q-7 -8 -14.5 -15t-14.5 -15 q-25 20 -48 29t-53 9q-23 0 -40.5 -8t-29.5 -21t-18 -29.5t-6 -33.5q0 -21 8 -36.5t22 -28.5t33.5 -25.5t43.5 -26.5q30 -17 55.5 -34.5t45 -37.5t30.5 -43t11 -51z" unicode="§" horiz-adv-x="411" glyph-name="section"/>
<glyph d="M76 585v48h42v-48h-42zM222 585v48h42v-48h-42z" unicode="¨" horiz-adv-x="343" glyph-name="dieresis"/>
<glyph d="M359 538q22 0 41.5 -6.5t34 -19.5t23 -33t8.5 -46l-34 -7q0 38 -20 58.5t-54 20.5q-32 0 -52 -20.5t-20 -49.5v-202q0 -30 20 -49.5t52 -19.5q33 0 52.5 20t20.5 57l35 -6q0 -51 -31.5 -77.5t-75.5 -26.5q-22 0 -41.5 6.5t-34.5 19.5t-24 33t-9 47v193q0 53 32 80.5 t77 27.5zM358 660q-66 0 -116 -25t-83.5 -68.5t-50 -101.5t-16.5 -124q0 -68 18 -126t52 -100.5t83.5 -66.5t112.5 -24q64 0 114 24t83.5 67t51 100.5t17.5 125.5t-17.5 126.5t-51.5 101t-83.5 67t-113.5 24.5zM358 -8q-74 0 -130 26.5t-94 73.5t-57.5 110.5t-19.5 138.5 t19.5 139t57.5 111.5t94 74t130 26.5q73 0 129 -26.5t94.5 -74t58.5 -111.5t20 -139t-20 -138.5t-58.5 -110.5t-94.5 -73.5t-129 -26.5z" unicode="©" horiz-adv-x="703" glyph-name="copyright"/>
<glyph d="M172 438h-53q-29 0 -48 -15.5t-19 -53.5q0 -24 13 -41t45 -17q28 0 45 14.5t17 40.5v72zM20 546q11 28 35.5 45t62.5 17q45 0 69.5 -19t24.5 -69v-240h-40v22q-15 -17 -35 -21.5t-39 -4.5q-23 0 -39.5 8t-26.5 20.5t-14.5 29.5t-4.5 35q0 19 5 37.5t16 33.5t30 24t47 9 h61v45q0 24 -10.5 39.5t-45.5 15.5q-20 0 -36 -11.5t-22 -28.5z" unicode="ª" horiz-adv-x="236" glyph-name="ordfeminine"/>
<glyph d="M144 46l-107 186l107 186h44l-106 -186l106 -186h-44zM267 46l-107 186l107 186h44l-105 -186l105 -186h-44z" unicode="«" horiz-adv-x="338" glyph-name="guillemotleft"/>
<glyph d="M335 117h-35v158h-284v36h319v-194z" unicode="¬" glyph-name="logicalnot"/>
<glyph d="M49 266v41h234v-41h-234z" unicode="­" horiz-adv-x="321" glyph-name="sfthyphen"/>
<glyph d="M285 543q0 23 -10.5 36t-34.5 13h-28v-96h31q24 0 33 13t9 34zM287 360l-39 111h-36v-111h-30v260h61q35 0 54 -18.5t19 -58.5q0 -20 -8 -39t-31 -30q11 -28 22 -57t21 -57h-33zM246 685q-40 0 -70 -15t-50.5 -41t-30.5 -61t-10 -75q0 -42 11 -76.5t31.5 -60t50.5 -39.5 t68 -14q40 0 70 15t49.5 40.5t29 60.5t9.5 74q0 40 -10.5 75t-30.5 61t-49.5 41t-67.5 15zM246 274q-46 0 -81.5 16.5t-59.5 46t-36.5 69t-12.5 85.5q0 48 12 88t36 69t59.5 45.5t82.5 16.5q45 0 80 -16.5t59 -45.5t36.5 -69t12.5 -88q0 -46 -12.5 -85.5t-36.5 -69t-59 -46 t-80 -16.5z" unicode="®" horiz-adv-x="486" glyph-name="registered"/>
<glyph d="M75 589v39h207v-39h-207z" unicode="¯" horiz-adv-x="343" glyph-name="macron"/>
<glyph d="M145 666q-26 0 -44 -18.5t-18 -44.5q0 -27 18 -45t44 -18t44 18t18 45q0 26 -18 44.5t-44 18.5zM237 603q0 -39 -26.5 -66t-65.5 -27q-19 0 -35.5 7t-29 20t-19.5 29.5t-7 36.5q0 19 7 36t19.5 29.5t29 19.5t35.5 7t36 -7t29.5 -19.5t19.5 -29.5t7 -36z" unicode="°" horiz-adv-x="281" glyph-name="degree"/>
<glyph d="M193 275v-158h-35v158h-142v36h142v157h35v-157h143v-36h-143zM16 41v35h320v-35h-320z" unicode="±" glyph-name="plusminus"/>
<glyph d="M116 755q-21 0 -36 -16t-15 -48l-39 6q0 42 24.5 67t66.5 25q48 0 70 -24.5t22 -65.5q0 -28 -7 -49.5t-20 -44.5l-111 -200h133v-35h-177v30l123 224q11 18 15 36t4 38q0 22 -11 39.5t-42 17.5z" unicode="²" horiz-adv-x="230" glyph-name="twosuperior"/>
<glyph d="M203 454q0 -35 -20.5 -61.5t-68.5 -26.5q-41 0 -64.5 22.5t-22.5 68.5l39 4q-1 -28 10 -45t39 -17q27 0 38.5 16.5t11.5 38.5v62q0 29 -13.5 41t-34.5 12h-23v34h24q20 0 33.5 11.5t13.5 38.5v50q0 20 -10.5 36t-38.5 16q-27 0 -39.5 -17t-12.5 -43l-38 6q2 38 24 62.5 t68 24.5q49 0 67 -25.5t18 -62.5v-33q0 -22 -3.5 -44t-28.5 -36q21 -11 26.5 -29.5t5.5 -42.5v-61z" unicode="³" horiz-adv-x="230" glyph-name="threesuperior"/>
<glyph d="M146 566l67 151l45 -17l-88 -144z" unicode="´" horiz-adv-x="342" glyph-name="acute"/>
<glyph d="M217 676v-757h-44v440q-25 0 -47 8q-47 11 -73.5 58.5t-26.5 115.5q0 36 7 69.5t24.5 58.5t46 40t71.5 15h201v-48h-50v-757h-44v757h-65z" unicode="¶" horiz-adv-x="404" glyph-name="paragraph"/>
<glyph d="M42 234v56h53v-56h-53z" unicode="·" horiz-adv-x="135" glyph-name="periodcentered"/>
<glyph d="M197 8l-18 -71q23 -2 38.5 -9.5t24.5 -18t12.5 -22.5t3.5 -22q0 -26 -18 -48.5t-58 -22.5q-15 0 -35 2.5t-40 13.5l10 24q17 -8 31.5 -10t26.5 -2q21 0 35 10.5t14 31.5q0 20 -15 33.5t-47 13.5l-16 12l24 87z" unicode="¸" horiz-adv-x="431" glyph-name="cedilla"/>
<glyph d="M108 370v374l-69 -45v41l71 45h34v-415h-36z" unicode="¹" horiz-adv-x="190" glyph-name="onesuperior"/>
<glyph d="M120 572q-17 0 -31 -6t-22 -23q-5 -13 -6.5 -39t-2.5 -61v-14q0 -31 1 -53.5t5 -33.5q5 -16 18.5 -24.5t37.5 -8.5q15 0 27.5 4.5t19.5 15.5q5 6 8 16q4 12 5 37t1 51v30.5t-1 30t-2 26.5t-3 19q-5 17 -20 25t-35 8zM121 608q39 0 60 -14.5t29 -36.5q7 -17 8.5 -49.5 t1.5 -61.5v-19q0 -17 -0.5 -34t-2.5 -37q-2 -24 -11.5 -39.5t-23.5 -25t-30.5 -13.5t-32.5 -4q-43 0 -64 17t-29 43q-2 7 -3.5 19.5t-2 26.5t-0.5 29v28q0 34 1.5 67t7.5 50q8 23 32 38.5t60 15.5z" unicode="º" horiz-adv-x="241" glyph-name="ordmasculine"/>
<glyph d="M161 46l106 186l-106 186h44l107 -186l-107 -186h-44zM38 46l105 186l-105 186h43l107 -186l-107 -186h-43z" unicode="»" horiz-adv-x="338" glyph-name="guillemotright"/>
<glyph d="M104 280v374l-69 -45v41l71 45h34v-415h-36zM116 -17h-33l314 731h33zM478 69v-69h-36v69h-132v31l94 315h38l-94 -311h94v113h36v-113h37v-35h-37z" unicode="¼" horiz-adv-x="550" glyph-name="onequarter"/>
<glyph d="M106 280v374l-69 -45v41l71 45h34v-415h-36zM99 -17h-33l314 731h33zM419 385q-21 0 -36 -15.5t-15 -48.5l-39 6q0 42 24.5 67t66.5 25q48 0 70 -24.5t22 -65.5q0 -28 -7 -49t-20 -44l-111 -201h133v-35h-177v31l123 223q11 19 15 36.5t4 37.5q0 22 -11 39.5t-42 17.5z " unicode="½" horiz-adv-x="550" glyph-name="onehalf"/>
<glyph d="M488 69v-69h-36v69h-132v31l94 315h38l-94 -311h94v113h36v-113h37v-35h-37zM134 -17h-33l314 731h33zM201 364q0 -35 -20.5 -61.5t-68.5 -26.5q-41 0 -64.5 22.5t-22.5 68.5l39 4q-1 -28 10 -45t39 -17q27 0 38.5 16.5t11.5 38.5v62q0 29 -13.5 41t-34.5 12h-23v34h24 q20 0 33.5 11.5t13.5 38.5v50q0 20 -10.5 36t-38.5 16q-27 0 -39.5 -17t-12.5 -43l-38 6q2 38 24 62.5t68 24.5q49 0 67 -25.5t18 -62.5v-33q0 -22 -3.5 -44t-28.5 -36q21 -11 26.5 -29.5t5.5 -42.5v-61z" unicode="¾" horiz-adv-x="550" glyph-name="threequarters"/>
<glyph d="M194 489v-50h-48v50h48zM186 -212q-42 0 -71 12t-46.5 33t-25 50t-7.5 63q0 25 2 43t5.5 32t8 25t10.5 22q22 37 39 62t27.5 45t16 38.5t5.5 42.5v72h41v-81q0 -27 -10 -54t-24.5 -52.5t-30 -48.5t-26.5 -41q-14 -24 -16.5 -49t-2.5 -53q0 -57 24 -88.5t81 -31.5 q38 0 68.5 27t32.5 83l43 -6q-3 -69 -43 -107t-101 -38z" unicode="¿" horiz-adv-x="343" glyph-name="questiondown"/>
<glyph d="M187 728l-144 90l33 36l128 -106zM187 634l-37 -174l-52 -238h179l-52 240l-36 172h-2zM325 0l-40 182h-194l-40 -182h-41l153 696h49l156 -696h-43z" unicode="À" horiz-adv-x="376" glyph-name="Agrave"/>
<glyph d="M166 748l128 105l32 -36l-143 -89zM187 634l-37 -174l-52 -238h179l-52 240l-36 172h-2zM325 0l-40 182h-194l-40 -182h-41l153 696h49l156 -696h-43z" unicode="Á" horiz-adv-x="376" glyph-name="Aacute"/>
<glyph d="M187 811l-110 -77l-19 16l115 103h32l110 -101l-19 -17zM187 634l-37 -174l-52 -238h179l-52 240l-36 172h-2zM325 0l-40 182h-194l-40 -182h-41l153 696h49l156 -696h-43z" unicode="Â" horiz-adv-x="376" glyph-name="Acircumflex"/>
<glyph d="M323 805q-12 -32 -33.5 -47t-41.5 -15q-15 0 -29.5 6t-28.5 13t-27.5 13t-26.5 6q-12 0 -24.5 -9.5t-23.5 -25.5l-24 15q12 25 31 41t40 16q15 0 29 -6t27.5 -13t27.5 -13t30 -6q28 0 51 39zM187 634l-37 -174l-52 -238h179l-52 240l-36 172h-2zM325 0l-40 182h-194 l-40 -182h-41l153 696h49l156 -696h-43z" unicode="Ã" horiz-adv-x="376" glyph-name="Atilde"/>
<glyph d="M93 745v47h42v-47h-42zM239 745v47h41v-47h-41zM187 634l-37 -174l-52 -238h179l-52 240l-36 172h-2zM325 0l-40 182h-194l-40 -182h-41l153 696h49l156 -696h-43z" unicode="Ä" horiz-adv-x="376" glyph-name="Adieresis"/>
<glyph d="M187 851q-22 0 -37.5 -16t-15.5 -39t15.5 -39t37.5 -16t37.5 16t15.5 39t-15.5 39t-37.5 16zM187 715q-33 0 -56.5 24t-23.5 57q0 35 23.5 58.5t56.5 23.5t56.5 -23.5t23.5 -58.5q0 -33 -23.5 -57t-56.5 -24zM187 634l-37 -174l-52 -238h179l-52 240l-36 172h-2zM325 0 l-40 182h-194l-40 -182h-41l153 696h49l156 -696h-43z" unicode="Å" horiz-adv-x="376" glyph-name="Aring"/>
<glyph d="M144 231h177v424h-2zM321 191h-193l-80 -191h-44l290 696h311v-40h-241v-279h212v-39h-212v-298h241v-40h-284v191z" unicode="Æ" horiz-adv-x="623" glyph-name="AE"/>
<glyph d="M199 702q32 0 60 -9t48.5 -27.5t32 -46.5t11.5 -66l-43 -9q0 62 -30.5 90t-78.5 28q-55 0 -82.5 -34.5t-27.5 -87.5v-392q0 -51 27.5 -83t82.5 -32q22 0 41.5 6.5t34.5 20.5t24 36.5t9 54.5l43 -8q-1 -73 -39.5 -108.5t-94.5 -40.5l-14 -57q23 -2 38.5 -9.5t24.5 -18 t12.5 -22.5t3.5 -22q0 -26 -18 -48.5t-58 -22.5q-15 0 -35 2.5t-40 13.5l10 24q17 -8 31.5 -10t26.5 -2q21 0 35 10.5t14 31.5q0 20 -15 33.5t-47 13.5l-16 12l19 70q-67 3 -105 41t-38 113v390q0 75 37.5 120t115.5 45z" unicode="Ç" horiz-adv-x="383" glyph-name="Ccedilla"/>
<glyph d="M205 728l-144 90l33 36l128 -106zM52 0v696h284v-40h-241v-279h212v-39h-212v-298h241v-40h-284z" unicode="È" horiz-adv-x="355" glyph-name="Egrave"/>
<glyph d="M134 748l128 105l32 -36l-143 -89zM52 0v696h284v-40h-241v-279h212v-39h-212v-298h241v-40h-284z" unicode="É" horiz-adv-x="355" glyph-name="Eacute"/>
<glyph d="M188 811l-110 -77l-19 16l115 103h32l110 -101l-19 -17zM52 0v696h284v-40h-241v-279h212v-39h-212v-298h241v-40h-284z" unicode="Ê" horiz-adv-x="355" glyph-name="Ecircumflex"/>
<glyph d="M91 745v47h42v-47h-42zM237 745v47h41v-47h-41zM52 0v696h284v-40h-241v-279h212v-39h-212v-298h241v-40h-284z" unicode="Ë" horiz-adv-x="355" glyph-name="Edieresis"/>
<glyph d="M92 728l-144 90l33 36l128 -106zM65 0v696h44v-696h-44z" unicode="Ì" horiz-adv-x="174" glyph-name="Igrave"/>
<glyph d="M66 748l128 105l32 -36l-143 -89zM65 0v696h44v-696h-44z" unicode="Í" horiz-adv-x="174" glyph-name="Iacute"/>
<glyph d="M89 811l-110 -77l-19 16l115 103h32l110 -101l-19 -17zM65 0v696h44v-696h-44z" unicode="Î" horiz-adv-x="174" glyph-name="Icircumflex"/>
<glyph d="M-6 745v47h42v-47h-42zM140 745v47h41v-47h-41zM65 0v696h44v-696h-44z" unicode="Ï" horiz-adv-x="174" glyph-name="Idieresis"/>
<glyph d="M317 518q0 30 -5 55.5t-18.5 44t-36.5 29t-58 10.5h-104v-268h110v-35h-110v-314h105q61 0 89 32t28 103v343zM5 389h47v307h150q63 0 99 -22t50 -73q11 -36 11 -96q0 -3 -0.5 -36t-0.5 -120v-151.5t-11 -101.5q-9 -30 -25 -48.5t-36.5 -29t-44.5 -14.5t-51 -4h-141v354 h-47v35z" unicode="Ð" horiz-adv-x="404" glyph-name="Eth"/>
<glyph d="M350 802q-12 -32 -33.5 -47t-41.5 -15q-15 0 -29.5 6t-28.5 13t-27.5 13t-26.5 6q-12 0 -24.5 -9.5t-23.5 -25.5l-24 15q12 25 31 41t40 16q15 0 29 -6t27.5 -13t27.5 -13t30 -6q28 0 51 39zM92 577v-577h-42v696h40q38 -90 76 -178.5t76 -178.5l93 -222h4v579h42v-696 h-41q-38 89 -75.5 177.5t-75.5 177.5q-24 56 -47.5 111t-46.5 111h-3z" unicode="Ñ" horiz-adv-x="431" glyph-name="Ntilde"/>
<glyph d="M216 728l-144 90l33 36l128 -106zM315 546q0 52 -29.5 84.5t-83.5 32.5q-29 0 -50 -10.5t-35.5 -28t-21.5 -40.5t-7 -48v-390q0 -51 29.5 -82.5t83.5 -31.5q58 0 86 33t28 88v393zM358 156q0 -81 -42.5 -122t-114.5 -41t-113.5 39t-41.5 115v391q0 75 39.5 119.5 t116.5 44.5t116.5 -41t39.5 -119v-386z" unicode="Ò" horiz-adv-x="403" glyph-name="Ograve"/>
<glyph d="M160 748l128 105l32 -36l-143 -89zM315 546q0 52 -29.5 84.5t-83.5 32.5q-29 0 -50 -10.5t-35.5 -28t-21.5 -40.5t-7 -48v-390q0 -51 29.5 -82.5t83.5 -31.5q58 0 86 33t28 88v393zM358 156q0 -81 -42.5 -122t-114.5 -41t-113.5 39t-41.5 115v391q0 75 39.5 119.5 t116.5 44.5t116.5 -41t39.5 -119v-386z" unicode="Ó" horiz-adv-x="403" glyph-name="Oacute"/>
<glyph d="M202 811l-110 -77l-19 16l115 103h32l110 -101l-19 -17zM315 546q0 52 -29.5 84.5t-83.5 32.5q-29 0 -50 -10.5t-35.5 -28t-21.5 -40.5t-7 -48v-390q0 -51 29.5 -82.5t83.5 -31.5q58 0 86 33t28 88v393zM358 156q0 -81 -42.5 -122t-114.5 -41t-113.5 39t-41.5 115v391 q0 75 39.5 119.5t116.5 44.5t116.5 -41t39.5 -119v-386z" unicode="Ô" horiz-adv-x="403" glyph-name="Ocircumflex"/>
<glyph d="M336 805q-12 -32 -33.5 -47t-41.5 -15q-15 0 -29.5 6t-28.5 13t-27.5 13t-26.5 6q-12 0 -24.5 -9.5t-23.5 -25.5l-24 15q12 25 31 41t40 16q15 0 29 -6t27.5 -13t27.5 -13t30 -6q28 0 51 39zM315 546q0 52 -29.5 84.5t-83.5 32.5q-29 0 -50 -10.5t-35.5 -28t-21.5 -40.5 t-7 -48v-390q0 -51 29.5 -82.5t83.5 -31.5q58 0 86 33t28 88v393zM358 156q0 -81 -42.5 -122t-114.5 -41t-113.5 39t-41.5 115v391q0 75 39.5 119.5t116.5 44.5t116.5 -41t39.5 -119v-386z" unicode="Õ" horiz-adv-x="403" glyph-name="Otilde"/>
<glyph d="M107 745v47h42v-47h-42zM253 745v47h41v-47h-41zM315 546q0 52 -29.5 84.5t-83.5 32.5q-29 0 -50 -10.5t-35.5 -28t-21.5 -40.5t-7 -48v-390q0 -51 29.5 -82.5t83.5 -31.5q58 0 86 33t28 88v393zM358 156q0 -81 -42.5 -122t-114.5 -41t-113.5 39t-41.5 115v391 q0 75 39.5 119.5t116.5 44.5t116.5 -41t39.5 -119v-386z" unicode="Ö" horiz-adv-x="403" glyph-name="Odieresis"/>
<glyph d="M189 270l-134 -134l-25 26l134 133l-122 122l25 25l123 -122l131 133l25 -26l-132 -131l127 -127l-25 -26z" unicode="×" horiz-adv-x="380" glyph-name="multiply"/>
<glyph d="M88 146v-11t1 -10l209 487q-14 24 -38 37.5t-58 13.5q-29 0 -50 -10.5t-35.5 -28t-21.5 -40.5t-7 -48v-390zM315 546q0 6 -0.5 12t-1.5 11l-210 -487q14 -23 38.5 -36.5t59.5 -13.5q58 0 86 33t28 88v393zM358 156q0 -81 -42.5 -122t-114.5 -41q-38 0 -68 10.5t-50 32.5 l-21 -49l-26 13l27 64q-17 36 -17 83v391q0 75 39.5 119.5t116.5 44.5q75 0 117 -42l21 49l28 -13l-29 -66q19 -38 19 -88v-386z" unicode="Ø" horiz-adv-x="403" glyph-name="Oslash"/>
<glyph d="M211 728l-144 90l33 36l128 -106zM352 695v-539q0 -81 -42 -122t-114 -41t-114 39t-42 115v548h43v-549q0 -51 29.5 -82.5t83.5 -31.5q57 0 85 33t28 88v542h43z" unicode="Ù" horiz-adv-x="393" glyph-name="Ugrave"/>
<glyph d="M156 748l128 105l32 -36l-143 -89zM352 695v-539q0 -81 -42 -122t-114 -41t-114 39t-42 115v548h43v-549q0 -51 29.5 -82.5t83.5 -31.5q57 0 85 33t28 88v542h43z" unicode="Ú" horiz-adv-x="393" glyph-name="Uacute"/>
<glyph d="M195 811l-110 -77l-19 16l115 103h32l110 -101l-19 -17zM352 695v-539q0 -81 -42 -122t-114 -41t-114 39t-42 115v548h43v-549q0 -51 29.5 -82.5t83.5 -31.5q57 0 85 33t28 88v542h43z" unicode="Û" horiz-adv-x="393" glyph-name="Ucircumflex"/>
<glyph d="M105 745v47h42v-47h-42zM251 745v47h41v-47h-41zM352 695v-539q0 -81 -42 -122t-114 -41t-114 39t-42 115v548h43v-549q0 -51 29.5 -82.5t83.5 -31.5q57 0 85 33t28 88v542h43z" unicode="Ü" horiz-adv-x="393" glyph-name="Udieresis"/>
<glyph d="M148 748l128 105l32 -36l-143 -89zM174 353l48 141q17 51 35 101t35 101h45l-143 -403v-293h-42v293l-143 403h44l70 -203l48 -140h3z" unicode="Ý" horiz-adv-x="350" glyph-name="Yacute"/>
<glyph d="M95 197h87q79 0 109.5 41.5t30.5 121.5q0 34 -6 63t-21.5 50t-42.5 33t-68 12h-89v-321zM52 696h42v-139h94q52 0 86.5 -14.5t54 -40t27.5 -62t8 -79.5q0 -45 -8.5 -82.5t-29 -64t-55 -41.5t-86.5 -15h-90v-157h-43v695z" unicode="Þ" horiz-adv-x="386" glyph-name="Thorn"/>
<glyph d="M241 430q25 -6 40 -18.5t22.5 -29t9.5 -36.5t2 -41v-165q0 -30 -6.5 -56.5t-20.5 -46.5t-36.5 -32t-55.5 -12h-32v35h16q53 0 72 28t19 80v175q0 20 -5.5 38.5t-17 32.5t-26 20t-30.5 6h-9v40q35 2 57 26.5t22 59.5v60q0 18 -4.5 34t-15.5 29t-28.5 20.5t-43.5 7.5 q-42 0 -66.5 -26.5t-24.5 -64.5v-594h-43v594q0 62 39 97t97 35q27 0 51.5 -8.5t43 -24.5t29 -40.5t10.5 -55.5v-60q0 -33 -14.5 -62.5t-50.5 -41.5v-3z" unicode="ß" horiz-adv-x="356" glyph-name="germandbls"/>
<glyph d="M177 556l-88 144l45 17l67 -151zM38 414q14 38 47 60t85 22q63 0 97 -28.5t34 -101.5v-366h-43v44h-1q-24 -33 -54.5 -41.5t-59.5 -8.5q-33 0 -55.5 11.5t-36.5 30.5t-20.5 43.5t-6.5 51.5q0 28 6.5 55.5t22.5 50t42.5 36.5t66.5 14h96v78q0 20 -4 36.5t-14 28.5 t-27.5 19t-44.5 7q-29 0 -55 -14t-34 -42zM171 248q-22 0 -41 -6t-33 -20t-22 -36.5t-8 -54.5q0 -40 20.5 -68.5t71.5 -28.5q43 0 71 23.5t28 69.5v121h-87z" unicode="à" horiz-adv-x="343" glyph-name="agrave"/>
<glyph d="M150 566l67 151l45 -17l-88 -144zM38 414q14 38 47 60t85 22q63 0 97 -28.5t34 -101.5v-366h-43v44h-1q-24 -33 -54.5 -41.5t-59.5 -8.5q-33 0 -55.5 11.5t-36.5 30.5t-20.5 43.5t-6.5 51.5q0 28 6.5 55.5t22.5 50t42.5 36.5t66.5 14h96v78q0 20 -4 36.5t-14 28.5 t-27.5 19t-44.5 7q-29 0 -55 -14t-34 -42zM171 248q-22 0 -41 -6t-33 -20t-22 -36.5t-8 -54.5q0 -40 20.5 -68.5t71.5 -28.5q43 0 71 23.5t28 69.5v121h-87z" unicode="á" horiz-adv-x="343" glyph-name="aacute"/>
<glyph d="M173 648l-110 -97l-19 16l115 123h31l111 -121l-20 -17zM38 414q14 38 47 60t85 22q63 0 97 -28.5t34 -101.5v-366h-43v44h-1q-24 -33 -54.5 -41.5t-59.5 -8.5q-33 0 -55.5 11.5t-36.5 30.5t-20.5 43.5t-6.5 51.5q0 28 6.5 55.5t22.5 50t42.5 36.5t66.5 14h96v78 q0 20 -4 36.5t-14 28.5t-27.5 19t-44.5 7q-29 0 -55 -14t-34 -42zM171 248q-22 0 -41 -6t-33 -20t-22 -36.5t-8 -54.5q0 -40 20.5 -68.5t71.5 -28.5q43 0 71 23.5t28 69.5v121h-87z" unicode="â" horiz-adv-x="343" glyph-name="acircumflex"/>
<glyph d="M310 635q-12 -32 -33.5 -47t-41.5 -15q-15 0 -29.5 6t-28.5 13t-27.5 13t-26.5 6q-12 0 -24.5 -9.5t-23.5 -25.5l-24 15q12 25 31 41t40 16q15 0 29 -6t27.5 -13t27.5 -13t30 -6q28 0 51 39zM38 414q14 38 47 60t85 22q63 0 97 -28.5t34 -101.5v-366h-43v44h-1 q-24 -33 -54.5 -41.5t-59.5 -8.5q-33 0 -55.5 11.5t-36.5 30.5t-20.5 43.5t-6.5 51.5q0 28 6.5 55.5t22.5 50t42.5 36.5t66.5 14h96v78q0 20 -4 36.5t-14 28.5t-27.5 19t-44.5 7q-29 0 -55 -14t-34 -42zM171 248q-22 0 -41 -6t-33 -20t-22 -36.5t-8 -54.5q0 -40 20.5 -68.5 t71.5 -28.5q43 0 71 23.5t28 69.5v121h-87z" unicode="ã" horiz-adv-x="343" glyph-name="atilde"/>
<glyph d="M78 585v48h42v-48h-42zM224 585v48h42v-48h-42zM38 414q14 38 47 60t85 22q63 0 97 -28.5t34 -101.5v-366h-43v44h-1q-24 -33 -54.5 -41.5t-59.5 -8.5q-33 0 -55.5 11.5t-36.5 30.5t-20.5 43.5t-6.5 51.5q0 28 6.5 55.5t22.5 50t42.5 36.5t66.5 14h96v78q0 20 -4 36.5 t-14 28.5t-27.5 19t-44.5 7q-29 0 -55 -14t-34 -42zM171 248q-22 0 -41 -6t-33 -20t-22 -36.5t-8 -54.5q0 -40 20.5 -68.5t71.5 -28.5q43 0 71 23.5t28 69.5v121h-87z" unicode="ä" horiz-adv-x="343" glyph-name="adieresis"/>
<glyph d="M179 686q-22 0 -37.5 -16t-15.5 -39t15.5 -39t37.5 -16t37.5 16t15.5 39t-15.5 39t-37.5 16zM179 550q-33 0 -56.5 24t-23.5 57q0 35 23.5 58.5t56.5 23.5t56.5 -23.5t23.5 -58.5q0 -33 -23.5 -57t-56.5 -24zM38 414q14 38 47 60t85 22q63 0 97 -28.5t34 -101.5v-366h-43 v44h-1q-24 -33 -54.5 -41.5t-59.5 -8.5q-33 0 -55.5 11.5t-36.5 30.5t-20.5 43.5t-6.5 51.5q0 28 6.5 55.5t22.5 50t42.5 36.5t66.5 14h96v78q0 20 -4 36.5t-14 28.5t-27.5 19t-44.5 7q-29 0 -55 -14t-34 -42zM171 248q-22 0 -41 -6t-33 -20t-22 -36.5t-8 -54.5 q0 -40 20.5 -68.5t71.5 -28.5q43 0 71 23.5t28 69.5v121h-87z" unicode="å" horiz-adv-x="343" glyph-name="aring"/>
<glyph d="M491 286v72q0 42 -22.5 70t-72.5 28q-40 0 -63 -21.5t-28 -58.5q-1 -2 -1.5 -14.5t-1 -27.5t-0.5 -28.5v-19.5h189zM257 249h-87q-44 0 -74 -26.5t-30 -90.5q0 -19 5 -37t16 -31.5t29 -21.5t44 -8q42 0 69.5 24t27.5 69v122zM396 -7q-43 0 -74 16.5t-47 46.5 q-17 -23 -34 -35.5t-33.5 -18.5t-31.5 -7t-27 -1q-36 0 -60 11.5t-38.5 30.5t-20.5 44t-6 52q0 28 7 55.5t22.5 49.5t42 36t65.5 14h96v78q0 40 -20 66t-73 26q-33 0 -55.5 -15.5t-30.5 -41.5l-41 14q14 38 46 60.5t83 22.5q90 0 115 -56q18 28 48.5 42t69.5 14 q64 0 100 -34.5t36 -98.5v-116h-233v-25.5v-43.5t0.5 -42t1.5 -22q2 -34 26.5 -58t66.5 -24q44 0 66.5 26t26.5 61l42 -9q-6 -55 -41.5 -86.5t-94.5 -31.5z" unicode="æ" horiz-adv-x="561" glyph-name="ae"/>
<glyph d="M175 496q63 0 96 -33t33 -96q-11 -2 -22 -3.5t-22 -3.5q1 46 -22 71.5t-66 25.5q-27 0 -48.5 -12t-34.5 -41q-8 -19 -10 -65t-2 -106v-13q0 -18 0.5 -37t1.5 -37t2.5 -33t4.5 -24q9 -27 30 -42t54 -15q41 0 65.5 22.5t24.5 72.5l44 -8q-2 -60 -33 -90.5t-86 -34.5 l-14 -57q23 -2 38.5 -9.5t24.5 -18t12.5 -22.5t3.5 -22q0 -26 -18 -48.5t-58 -22.5q-15 0 -35 2.5t-40 13.5l10 24q17 -8 31.5 -10t26.5 -2q21 0 35 10.5t14 31.5q0 20 -15 33.5t-47 13.5l-16 12l19 71q-54 3 -80.5 28.5t-33.5 57.5q-3 12 -5 31t-2.5 41t-1 44.5t-0.5 42.5 q0 27 0.5 54t2 51t4.5 43.5t7 31.5q13 35 43 56t84 21z" unicode="ç" horiz-adv-x="329" glyph-name="ccedilla"/>
<glyph d="M181 556l-88 144l45 17l67 -151zM88 404q-7 -17 -8.5 -50.5t-2.5 -79.5h185v61q0 23 -2.5 45t-12 39t-27.5 27t-48 10q-25 0 -48 -11t-36 -41zM174 496q60 0 93.5 -30.5t36.5 -87.5q1 -11 1 -21.5v-21.5v-97h-228v-32q0 -32 1.5 -66.5t7.5 -51.5q9 -26 29 -41t54 -15 q45 0 66.5 26t24.5 64l43 -8q-5 -59 -41 -90t-93 -31q-30 0 -52.5 7.5t-37.5 19.5t-24 27.5t-13 32.5q-3 12 -5 31t-2.5 40.5t-1 44.5t-0.5 43q0 27 0.5 54t2 51t4.5 44t7 32q13 35 43 55.5t84 20.5z" unicode="è" horiz-adv-x="342" glyph-name="egrave"/>
<glyph d="M149 566l67 151l45 -17l-88 -144zM88 404q-7 -17 -8.5 -50.5t-2.5 -79.5h185v61q0 23 -2.5 45t-12 39t-27.5 27t-48 10q-25 0 -48 -11t-36 -41zM174 496q60 0 93.5 -30.5t36.5 -87.5q1 -11 1 -21.5v-21.5v-97h-228v-32q0 -32 1.5 -66.5t7.5 -51.5q9 -26 29 -41t54 -15 q45 0 66.5 26t24.5 64l43 -8q-5 -59 -41 -90t-93 -31q-30 0 -52.5 7.5t-37.5 19.5t-24 27.5t-13 32.5q-3 12 -5 31t-2.5 40.5t-1 44.5t-0.5 43q0 27 0.5 54t2 51t4.5 44t7 32q13 35 43 55.5t84 20.5z" unicode="é" horiz-adv-x="342" glyph-name="eacute"/>
<glyph d="M171 648l-110 -97l-19 16l115 123h31l111 -121l-20 -17zM88 404q-7 -17 -8.5 -50.5t-2.5 -79.5h185v61q0 23 -2.5 45t-12 39t-27.5 27t-48 10q-25 0 -48 -11t-36 -41zM174 496q60 0 93.5 -30.5t36.5 -87.5q1 -11 1 -21.5v-21.5v-97h-228v-32q0 -32 1.5 -66.5t7.5 -51.5 q9 -26 29 -41t54 -15q45 0 66.5 26t24.5 64l43 -8q-5 -59 -41 -90t-93 -31q-30 0 -52.5 7.5t-37.5 19.5t-24 27.5t-13 32.5q-3 12 -5 31t-2.5 40.5t-1 44.5t-0.5 43q0 27 0.5 54t2 51t4.5 44t7 32q13 35 43 55.5t84 20.5z" unicode="ê" horiz-adv-x="342" glyph-name="ecircumflex"/>
<glyph d="M75 585v48h42v-48h-42zM221 585v48h42v-48h-42zM88 404q-7 -17 -8.5 -50.5t-2.5 -79.5h185v61q0 23 -2.5 45t-12 39t-27.5 27t-48 10q-25 0 -48 -11t-36 -41zM174 496q60 0 93.5 -30.5t36.5 -87.5q1 -11 1 -21.5v-21.5v-97h-228v-32q0 -32 1.5 -66.5t7.5 -51.5 q9 -26 29 -41t54 -15q45 0 66.5 26t24.5 64l43 -8q-5 -59 -41 -90t-93 -31q-30 0 -52.5 7.5t-37.5 19.5t-24 27.5t-13 32.5q-3 12 -5 31t-2.5 40.5t-1 44.5t-0.5 43q0 27 0.5 54t2 51t4.5 44t7 32q13 35 43 55.5t84 20.5z" unicode="ë" horiz-adv-x="342" glyph-name="edieresis"/>
<glyph d="M66 556l-88 144l45 17l67 -151zM55 0v489h43v-489h-43z" unicode="ì" horiz-adv-x="155" glyph-name="igrave"/>
<glyph d="M61 566l67 151l45 -17l-88 -144zM55 0v489h43v-489h-43z" unicode="í" horiz-adv-x="155" glyph-name="iacute"/>
<glyph d="M109 648l-110 -97l-19 16l115 123h31l111 -121l-20 -17zM85 0v489h43v-489h-43z" unicode="î" horiz-adv-x="217" glyph-name="icircumflex"/>
<glyph d="M-10 585v48h42v-48h-42zM136 585v48h42v-48h-42zM63 0v489h43v-489h-43z" unicode="ï" horiz-adv-x="168" glyph-name="idieresis"/>
<glyph d="M176 437q-62 0 -88 -58q-3 -9 -5 -19t-3 -24t-2 -32.5t-1 -44.5v-40q0 -48 1.5 -80.5t7.5 -50.5q9 -27 30.5 -42t58.5 -15q33 0 56.5 18.5t32.5 50.5q4 17 5.5 53t1.5 78v72q0 19 -1 36.5t-6 31.5q-8 29 -28.5 47.5t-59.5 18.5zM173 476q9 0 22 -2t27 -7.5t27.5 -15.5 t22.5 -25h1q0 14 -0.5 27.5t-0.5 27.5q0 30 -4.5 59t-14.5 52q-19 -13 -37.5 -26t-38.5 -26l-17 25l79 55q-10 15 -26 29q-18 17 -46 29t-62 17l5 37q47 -5 80 -19.5t53 -32.5q9 -8 17 -17t14 -19l62 43l18 -24l-65 -45q14 -32 19 -73.5t5 -97.5l2 -165v-60.5t-1 -44.5 t-2.5 -34t-2.5 -30q-3 -35 -16.5 -58t-33 -37t-42.5 -19.5t-45 -5.5q-60 0 -89 27t-40 65q-3 10 -4.5 27.5t-2.5 38.5t-1.5 43.5t-0.5 42.5v25q1 44 4 77.5t11 56.5q12 33 43 56t81 24z" unicode="ð" glyph-name="eth"/>
<glyph d="M304 635q-12 -32 -33.5 -47t-41.5 -15q-15 0 -29.5 6t-28.5 13t-27.5 13t-26.5 6q-12 0 -24.5 -9.5t-23.5 -25.5l-24 15q12 25 31 41t40 16q15 0 29 -6t27.5 -13t27.5 -13t30 -6q28 0 51 39zM85 435h2q17 29 45.5 45t62.5 16t57 -10t37 -28t20 -42t6 -52v-364h-44v351 q0 21 -4 40t-14 32.5t-27 21.5t-42 8q-24 0 -42.5 -9.5t-31.5 -25t-19.5 -35.5t-6.5 -41v-342h-42v489h43v-54z" unicode="ñ" horiz-adv-x="357" glyph-name="ntilde"/>
<glyph d="M174 556l-88 144l45 17l67 -151zM175 457q-26 0 -50 -10.5t-36 -40.5q-8 -20 -10 -62.5t-2 -98.5v-25q0 -48 1.5 -81t7.5 -51q9 -27 30.5 -41.5t58.5 -14.5q33 0 57 18t32 50q4 17 5.5 54t1.5 79q0 22 -0.5 47t-1 48t-2.5 41.5t-5 28.5q-9 30 -32.5 44.5t-54.5 14.5z M176 496q55 0 84 -21t40 -53q5 -13 7.5 -34.5t4 -47t1.5 -52v-49.5v-15q0 -26 -0.5 -53t-3.5 -59q-3 -35 -16.5 -58t-33 -36.5t-42.5 -19t-45 -5.5q-60 0 -89.5 24.5t-40.5 62.5q-3 12 -5 30.5t-3 40.5t-1 45v43q0 27 0.5 53.5t2 50.5t4.5 43.5t7 31.5q13 35 44 56.5 t85 21.5z" unicode="ò" horiz-adv-x="349" glyph-name="ograve"/>
<glyph d="M146 566l67 151l45 -17l-88 -144zM175 457q-26 0 -50 -10.5t-36 -40.5q-8 -20 -10 -62.5t-2 -98.5v-25q0 -48 1.5 -81t7.5 -51q9 -27 30.5 -41.5t58.5 -14.5q33 0 57 18t32 50q4 17 5.5 54t1.5 79q0 22 -0.5 47t-1 48t-2.5 41.5t-5 28.5q-9 30 -32.5 44.5t-54.5 14.5z M176 496q55 0 84 -21t40 -53q5 -13 7.5 -34.5t4 -47t1.5 -52v-49.5v-15q0 -26 -0.5 -53t-3.5 -59q-3 -35 -16.5 -58t-33 -36.5t-42.5 -19t-45 -5.5q-60 0 -89.5 24.5t-40.5 62.5q-3 12 -5 30.5t-3 40.5t-1 45v43q0 27 0.5 53.5t2 50.5t4.5 43.5t7 31.5q13 35 44 56.5 t85 21.5z" unicode="ó" horiz-adv-x="349" glyph-name="oacute"/>
<glyph d="M177 648l-110 -97l-19 16l115 123h31l111 -121l-20 -17zM175 457q-26 0 -50 -10.5t-36 -40.5q-8 -20 -10 -62.5t-2 -98.5v-25q0 -48 1.5 -81t7.5 -51q9 -27 30.5 -41.5t58.5 -14.5q33 0 57 18t32 50q4 17 5.5 54t1.5 79q0 22 -0.5 47t-1 48t-2.5 41.5t-5 28.5 q-9 30 -32.5 44.5t-54.5 14.5zM176 496q55 0 84 -21t40 -53q5 -13 7.5 -34.5t4 -47t1.5 -52v-49.5v-15q0 -26 -0.5 -53t-3.5 -59q-3 -35 -16.5 -58t-33 -36.5t-42.5 -19t-45 -5.5q-60 0 -89.5 24.5t-40.5 62.5q-3 12 -5 30.5t-3 40.5t-1 45v43q0 27 0.5 53.5t2 50.5 t4.5 43.5t7 31.5q13 35 44 56.5t85 21.5z" unicode="ô" horiz-adv-x="349" glyph-name="ocircumflex"/>
<glyph d="M312 635q-12 -32 -33.5 -47t-41.5 -15q-15 0 -29.5 6t-28.5 13t-27.5 13t-26.5 6q-12 0 -24.5 -9.5t-23.5 -25.5l-24 15q12 25 31 41t40 16q15 0 29 -6t27.5 -13t27.5 -13t30 -6q28 0 51 39zM175 457q-26 0 -50 -10.5t-36 -40.5q-8 -20 -10 -62.5t-2 -98.5v-25 q0 -48 1.5 -81t7.5 -51q9 -27 30.5 -41.5t58.5 -14.5q33 0 57 18t32 50q4 17 5.5 54t1.5 79q0 22 -0.5 47t-1 48t-2.5 41.5t-5 28.5q-9 30 -32.5 44.5t-54.5 14.5zM176 496q55 0 84 -21t40 -53q5 -13 7.5 -34.5t4 -47t1.5 -52v-49.5v-15q0 -26 -0.5 -53t-3.5 -59 q-3 -35 -16.5 -58t-33 -36.5t-42.5 -19t-45 -5.5q-60 0 -89.5 24.5t-40.5 62.5q-3 12 -5 30.5t-3 40.5t-1 45v43q0 27 0.5 53.5t2 50.5t4.5 43.5t7 31.5q13 35 44 56.5t85 21.5z" unicode="õ" horiz-adv-x="349" glyph-name="otilde"/>
<glyph d="M80 585v48h42v-48h-42zM226 585v48h42v-48h-42zM175 457q-26 0 -50 -10.5t-36 -40.5q-8 -20 -10 -62.5t-2 -98.5v-25q0 -48 1.5 -81t7.5 -51q9 -27 30.5 -41.5t58.5 -14.5q33 0 57 18t32 50q4 17 5.5 54t1.5 79q0 22 -0.5 47t-1 48t-2.5 41.5t-5 28.5q-9 30 -32.5 44.5 t-54.5 14.5zM176 496q55 0 84 -21t40 -53q5 -13 7.5 -34.5t4 -47t1.5 -52v-49.5v-15q0 -26 -0.5 -53t-3.5 -59q-3 -35 -16.5 -58t-33 -36.5t-42.5 -19t-45 -5.5q-60 0 -89.5 24.5t-40.5 62.5q-3 12 -5 30.5t-3 40.5t-1 45v43q0 27 0.5 53.5t2 50.5t4.5 43.5t7 31.5 q13 35 44 56.5t85 21.5z" unicode="ö" horiz-adv-x="349" glyph-name="odieresis"/>
<glyph d="M177 176q14 0 24.5 -10.5t10.5 -24.5q0 -15 -10.5 -26t-24.5 -11t-24.5 11t-10.5 26q0 14 10.5 24.5t24.5 10.5zM16 275v37h319v-37h-319zM212 440q0 -15 -10.5 -25.5t-24.5 -10.5t-24.5 10.5t-10.5 25.5q0 14 10.5 24.5t24.5 10.5t24.5 -10.5t10.5 -24.5z" unicode="÷" glyph-name="divide"/>
<glyph d="M175 457q-26 0 -50 -10.5t-36 -40.5q-8 -20 -10 -62.5t-2 -98.5v-25q0 -44 1 -75t6 -50q41 83 81.5 165t82.5 165q-13 17 -31.5 24.5t-41.5 7.5zM263 393q-42 -82 -83 -164t-83 -164q22 -33 78 -33q33 0 57 18t32 50q4 17 5.5 54t1.5 79q0 21 -0.5 45t-1 45.5t-2 40 t-4.5 29.5zM176 496q32 0 54.5 -7.5t38.5 -20.5l17 34l25 -13l-22 -44q7 -12 11 -23q5 -13 7.5 -34.5t4 -47t1.5 -52v-49.5v-15q0 -26 -0.5 -53t-3.5 -59q-3 -35 -16.5 -58t-33 -36.5t-42.5 -19t-45 -5.5q-34 0 -57.5 7.5t-39.5 21.5l-16 -32l-22 12l21 41q-5 8 -9.5 17 t-6.5 20q-3 12 -5 30.5t-3 40.5t-1 45v43q0 27 0.5 53.5t2 50.5t4.5 43.5t7 31.5q13 35 44 56.5t85 21.5z" unicode="ø" horiz-adv-x="349" glyph-name="oslash"/>
<glyph d="M185 556l-88 144l45 17l67 -151zM273 55h-3q-17 -29 -45 -45.5t-63 -16.5q-34 0 -57 10.5t-36.5 28.5t-19.5 42t-6 51v365h44v-351q0 -23 4 -42t13.5 -32.5t26.5 -21.5t43 -8q23 0 41.5 9.5t31 25t19.5 35.5t7 41v344h43v-490h-43v55z" unicode="ù" horiz-adv-x="358" glyph-name="ugrave"/>
<glyph d="M175 566l67 151l45 -17l-88 -144zM273 55h-3q-17 -29 -45 -45.5t-63 -16.5q-34 0 -57 10.5t-36.5 28.5t-19.5 42t-6 51v365h44v-351q0 -23 4 -42t13.5 -32.5t26.5 -21.5t43 -8q23 0 41.5 9.5t31 25t19.5 35.5t7 41v344h43v-490h-43v55z" unicode="ú" horiz-adv-x="358" glyph-name="uacute"/>
<glyph d="M180 648l-110 -97l-19 16l115 123h31l111 -121l-20 -17zM273 55h-3q-17 -29 -45 -45.5t-63 -16.5q-34 0 -57 10.5t-36.5 28.5t-19.5 42t-6 51v365h44v-351q0 -23 4 -42t13.5 -32.5t26.5 -21.5t43 -8q23 0 41.5 9.5t31 25t19.5 35.5t7 41v344h43v-490h-43v55z" unicode="û" horiz-adv-x="358" glyph-name="ucircumflex"/>
<glyph d="M79 585v48h42v-48h-42zM225 585v48h42v-48h-42zM273 55h-3q-17 -29 -45 -45.5t-63 -16.5q-34 0 -57 10.5t-36.5 28.5t-19.5 42t-6 51v365h44v-351q0 -23 4 -42t13.5 -32.5t26.5 -21.5t43 -8q23 0 41.5 9.5t31 25t19.5 35.5t7 41v344h43v-490h-43v55z" unicode="ü" horiz-adv-x="358" glyph-name="udieresis"/>
<glyph d="M138 566l67 151l45 -17l-88 -144zM158 68q14 51 27 105.5t26 106.5l55 209h44l-147 -549q-8 -32 -18 -59q-11 -34 -35.5 -56.5t-65.5 -22.5h-15v38h12q32 0 49 23t27 64q5 19 9.5 37.5t9.5 37.5q-33 122 -65.5 243t-64.5 244h46l52 -210l52 -211h2z" unicode="ý" horiz-adv-x="315" glyph-name="yacute"/>
<glyph d="M188 495q18 0 38 -5t37 -18t29.5 -35.5t15.5 -57.5q3 -32 3 -61.5v-57.5v-14q0 -59 -1.5 -106t-14.5 -79q-12 -29 -38 -48.5t-76 -19.5q-22 0 -38.5 5.5t-28 13.5t-19.5 18t-14 18h-2v-242h-42v889h42v-253h2q17 25 41.5 39t65.5 14zM178 454q-45 0 -72 -29t-27 -76v-202 q0 -22 6 -42.5t18 -36t30 -25t42 -9.5q30 0 53 16t31 47q3 10 4.5 27.5t2.5 39t1 45v46.5q0 47 -1.5 83.5t-6.5 53.5q-10 35 -30 48.5t-51 13.5z" unicode="þ" horiz-adv-x="349" glyph-name="thorn"/>
<glyph d="M94 745v47h42v-47h-42zM240 745v47h41v-47h-41zM52 0v696h284v-40h-241v-279h212v-39h-212v-298h241v-40h-284z" unicode="Ё" horiz-adv-x="355" glyph-name="afii10023"/>
<glyph d="M300 470q60 0 94.5 -31t36.5 -100q1 -13 1 -26v-27v-118q0 -14 -0.5 -27.5t-1.5 -27.5q-4 -72 -39.5 -104t-98.5 -33v37q56 0 76.5 33.5t20.5 87.5v184q0 110 -95 110q-28 0 -57.5 -12.5t-55.5 -35.5v-380h-44v657h-119v39h348v-39h-185v-228h2q29 22 58.5 31.5t58.5 9.5 z" unicode="Ђ" horiz-adv-x="481" glyph-name="afii10051"/>
<glyph d="M132 748l128 105l32 -36l-143 -89zM96 656v-656h-43v696h278v-40h-235z" unicode="Ѓ" horiz-adv-x="350" glyph-name="afii10052"/>
<glyph d="M351 118q-5 -33 -18.5 -56.5t-34 -39t-46 -22.5t-53.5 -7q-72 0 -112.5 38.5t-40.5 115.5v390q0 75 37.5 120t115.5 45q60 0 101.5 -28.5t49.5 -93.5l-43 -12q-5 51 -35 72.5t-73 21.5q-55 0 -82.5 -34.5t-27.5 -87.5v-165h175v-42h-175v-185q0 -51 27.5 -83t82.5 -32 q40 0 71.5 22t37.5 74z" unicode="Є" horiz-adv-x="380" glyph-name="afii10053"/>
<glyph d="M347 182q0 -43 -8 -78t-26 -59.5t-48 -38t-75 -13.5q-42 0 -71.5 11.5t-48.5 31.5t-27.5 47t-9.5 59l44 9q0 -23 6 -44.5t19.5 -37.5t35 -25.5t52.5 -9.5q37 0 59.5 12t34.5 32t15.5 47t3.5 56q0 35 -3.5 58.5t-15 41t-34 32t-61.5 31.5q-50 22 -80 43t-45.5 42.5 t-20 45.5t-4.5 53q0 38 9 70t28 55t48 36t70 13q45 0 74.5 -13t47 -34t24.5 -46.5t7 -50.5l-44 -11q0 24 -5.5 44.5t-18.5 36t-34.5 24.5t-52.5 9q-34 0 -55.5 -12.5t-33.5 -32t-16 -42.5t-4 -45q0 -26 5 -45.5t19 -36.5t40 -33t70 -35q45 -19 71 -38.5t39 -42t16.5 -51 t3.5 -65.5z" unicode="Ѕ" horiz-adv-x="378" glyph-name="afii10054"/>
<glyph d="M65 0v696h44v-696h-44z" unicode="І" horiz-adv-x="174" glyph-name="afii10055"/>
<glyph d="M-7 764v48h42v-48h-42zM139 764v48h42v-48h-42zM65 0v696h44v-696h-44z" unicode="Ї" horiz-adv-x="174" glyph-name="afii10056"/>
<glyph d="M252 696v-546q0 -75 -40 -116t-118 -41q-26 0 -54.5 7t-45.5 26l25 33q15 -12 36 -19t41 -7q19 0 39 5.5t36.5 18.5t27 35.5t10.5 56.5v547h43z" unicode="Ј" horiz-adv-x="321" glyph-name="afii10057"/>
<glyph d="M441 41q41 0 68 12t42.5 33t21.5 49.5t6 61.5q0 72 -32.5 110.5t-107.5 38.5h-87v-305h89zM352 387h90q52 0 86.5 -14t55.5 -39t29.5 -60t8.5 -77t-8 -78t-28 -62.5t-54.5 -41.5t-86.5 -15h-136v656h-175v-314q0 -92 -5.5 -152.5t-18 -100t-34 -63.5t-54.5 -43 q-5 8 -10 15t-10 15q24 17 41.5 35t28.5 50t16.5 86t5.5 144v368h258v-309z" unicode="Љ" horiz-adv-x="651" glyph-name="afii10058"/>
<glyph d="M433 41q41 0 68 11.5t42.5 32.5t21.5 49t6 61q0 72 -32.5 109t-107.5 37h-87v-300h89zM301 0v342h-206v-342h-43v696h43v-314h206v314h43v-314h90q52 0 86.5 -13.5t55.5 -37.5t29.5 -58.5t8.5 -76.5t-8 -78t-28 -62.5t-54.5 -41t-86.5 -14.5h-136z" unicode="Њ" horiz-adv-x="643" glyph-name="afii10059"/>
<glyph d="M389 0v324q0 48 -21 76t-74 28q-32 0 -61 -13.5t-52 -34.5v-380h-44v657h-119v39h348v-39h-185v-228h2q29 22 58.5 31.5t58.5 9.5q37 0 62 -11.5t41 -30.5t23 -44t7 -52v-332h-44z" unicode="Ћ" horiz-adv-x="481" glyph-name="afii10060"/>
<glyph d="M161 748l128 105l32 -36l-143 -89zM52 0v696h42v-316h76q18 0 36.5 4.5t35.5 16.5t30.5 33t21.5 54l51 208h39l-45 -199q-12 -51 -35.5 -86.5t-58.5 -46.5q46 -11 68 -47t33 -88l50 -229h-44l-49 227q-8 35 -20 57t-28 34t-35 16.5t-39 4.5h-87v-339h-42z" unicode="Ќ" horiz-adv-x="406" glyph-name="afii10061"/>
<glyph d="M117 816q5 -32 28.5 -54t54.5 -22q32 0 55.5 20.5t28.5 55.5h36q-2 -19 -10 -38.5t-23 -36t-36.5 -27t-50.5 -10.5q-30 0 -51.5 10.5t-36 27t-22 36.5t-9.5 38h36zM199 239l122 457h42l-152 -556q-13 -47 -26.5 -76t-28.5 -45t-32.5 -22t-36.5 -6h-23v38h20q29 0 48 20.5 t35 73.5l12 41l-162 532h44l135 -457h3z" unicode="Ў" horiz-adv-x="382" glyph-name="afii10062"/>
<glyph d="M356 696v-696h-130v-136h-43v136h-131v696h43v-654h218v654h43z" unicode="Џ" horiz-adv-x="407" glyph-name="afii10145"/>
<glyph d="M187 634l-37 -174l-52 -238h179l-52 240l-36 172h-2zM325 0l-40 182h-194l-40 -182h-41l153 696h49l156 -696h-43z" unicode="А" horiz-adv-x="376" glyph-name="afii10017"/>
<glyph d="M88 388h90q52 0 86.5 -14t55.5 -39t29.5 -60t8.5 -77t-8 -78.5t-28 -63t-54.5 -41.5t-87.5 -15h-135v696h272v-40h-229v-268zM88 42h89q41 0 68 12t42.5 33t21.5 49.5t6 61.5q0 71 -32.5 110t-107.5 39h-87v-305z" unicode="Б" horiz-adv-x="386" glyph-name="afii10018"/>
<glyph d="M319 523q0 65 -29 99.5t-100 34.5h-95v-271h112q63 0 87.5 35.5t24.5 101.5zM327 205q0 69 -27.5 106.5t-87.5 37.5h-117v-309h103q39 0 64.5 13.5t39.5 36t19.5 52.5t5.5 63zM286 366q48 -16 65.5 -60t17.5 -104q0 -55 -12 -93.5t-34.5 -62.5t-54 -35t-71.5 -11h-145 v696h146q45 0 76.5 -11.5t50.5 -34t27.5 -54.5t8.5 -73q0 -54 -15 -94t-60 -61v-2z" unicode="В" horiz-adv-x="410" glyph-name="afii10019"/>
<glyph d="M96 656v-656h-43v696h278v-40h-235z" unicode="Г" horiz-adv-x="350" glyph-name="afii10020"/>
<glyph d="M358 39v617h-204l-10 -334q-3 -99 -13 -167t-41 -116h268zM45 -131h-40v168l33 2q16 19 27.5 41t19 53t12 75t6.5 108l11 380h287v-657h39v-170h-39v131h-356v-131z" unicode="Д" horiz-adv-x="458" glyph-name="afii10021"/>
<glyph d="M52 0v696h284v-40h-241v-279h212v-39h-212v-298h241v-40h-284z" unicode="Е" horiz-adv-x="355" glyph-name="afii10022"/>
<glyph d="M299 0v339h-64q-20 0 -39 -4.5t-35 -16.5t-28.5 -34t-19.5 -57l-49 -227h-44l50 229q11 52 33 88t68 47q-35 11 -58.5 46.5t-35.5 86.5l-45 199h39l51 -208q8 -33 21.5 -54t30.5 -33t35.5 -16.5t36.5 -4.5h53v316h43v-316h53q18 0 36.5 4.5t35.5 16.5t30.5 33t21.5 54 l51 208h39l-45 -199q-12 -51 -35.5 -86.5t-58.5 -46.5q46 -11 68 -47t33 -88l50 -229h-44l-49 227q-8 35 -20 57t-28 34t-35 16.5t-39 4.5h-64v-339h-43z" unicode="Ж" horiz-adv-x="641" glyph-name="afii10024"/>
<glyph d="M275 227q0 60 -22 90.5t-62 30.5h-54v41h36q45 0 74 24t29 89v40q0 63 -30 91t-76 28q-48 0 -80.5 -28.5t-32.5 -88.5q-11 2 -21 4.5t-21 5.5q1 39 14.5 67t35 46t49.5 26.5t58 8.5q63 0 102.5 -35t42.5 -106q1 -9 1 -18.5v-19.5q0 -18 -1.5 -41.5t-8.5 -45.5t-20 -40 t-35 -26v-1q23 -9 36 -25.5t19.5 -36t8 -40t1.5 -38.5v-81q-2 -41 -15 -70t-34 -48t-48 -28t-57 -9q-29 0 -56 8t-48 26t-33.5 46.5t-13.5 68.5l42 9q0 -33 9 -55.5t24 -37t34.5 -20.5t41.5 -6q49 0 80 30.5t31 101.5v63z" unicode="З" horiz-adv-x="374" glyph-name="afii10025"/>
<glyph d="M319 588l-228 -588h-41v696h42v-588h4l226 588h42v-696h-43v588h-2z" unicode="И" horiz-adv-x="414" glyph-name="afii10026"/>
<glyph d="M319 588l-228 -588h-41v696h42v-588h4l226 588h42v-696h-43v588h-2zM125 820q5 -32 28.5 -54t54.5 -22q32 0 55.5 20.5t28.5 55.5h36q-2 -19 -10 -38.5t-23 -36t-36.5 -27t-50.5 -10.5q-30 0 -51.5 10.5t-36 27t-22 36.5t-9.5 38h36z" unicode="Й" horiz-adv-x="414" glyph-name="afii10027"/>
<glyph d="M52 0v696h42v-316h76q18 0 36.5 4.5t35.5 16.5t30.5 33t21.5 54l51 208h39l-45 -199q-12 -51 -35.5 -86.5t-58.5 -46.5q46 -11 68 -47t33 -88l50 -229h-44l-49 227q-8 35 -20 57t-28 34t-35 16.5t-39 4.5h-87v-339h-42z" unicode="К" horiz-adv-x="406" glyph-name="afii10028"/>
<glyph d="M134 342q0 -92 -5 -152t-18 -100t-34.5 -64.5t-54.5 -43.5l-20 32q24 17 41.5 36t28.5 52t16.5 86t5.5 140v368h285v-696h-43v656h-202v-314z" unicode="Л" horiz-adv-x="430" glyph-name="afii10029"/>
<glyph d="M435 575q-18 -51 -37 -100.5t-38 -100.5l-81 -212h-30q-20 53 -39.5 105t-39.5 104l-73 199h-4v-570h-43v696h44q23 -60 44.5 -118.5t43.5 -118.5l81 -223h3l83 224q3 7 10 25.5t15.5 42t18.5 50.5t19 50.5t15.5 42t9.5 25.5h43v-696h-42v575h-3z" unicode="М" horiz-adv-x="532" glyph-name="afii10030"/>
<glyph d="M317 0v337h-222v-337h-43v696h43v-320h222v320h43v-696h-43z" unicode="Н" horiz-adv-x="412" glyph-name="afii10031"/>
<glyph d="M315 546q0 52 -29.5 84.5t-83.5 32.5q-29 0 -50 -10.5t-35.5 -28t-21.5 -40.5t-7 -48v-390q0 -51 29.5 -82.5t83.5 -31.5q58 0 86 33t28 88v393zM358 156q0 -81 -42.5 -122t-114.5 -41t-113.5 39t-41.5 115v391q0 75 39.5 119.5t116.5 44.5t116.5 -41t39.5 -119v-386z " unicode="О" horiz-adv-x="403" glyph-name="afii10032"/>
<glyph d="M313 0v655h-218v-655h-43v696h304v-696h-43z" unicode="П" horiz-adv-x="407" glyph-name="afii10033"/>
<glyph d="M95 336h87q79 0 109.5 41.5t30.5 121.5q0 34 -6 63t-21.5 50t-42.5 33t-68 12h-89v-321zM188 696q52 0 86.5 -14.5t54 -40t27.5 -62t8 -79.5q0 -45 -8.5 -82.5t-29 -64t-55 -41.5t-86.5 -15h-90v-296h-43v695h136z" unicode="Р" horiz-adv-x="386" glyph-name="afii10034"/>
<glyph d="M199 702q32 0 60 -9t48.5 -27.5t32 -46.5t11.5 -66l-43 -9q0 62 -30.5 90t-78.5 28q-55 0 -82.5 -34.5t-27.5 -87.5v-392q0 -51 27.5 -83t82.5 -32q22 0 41.5 6.5t34.5 20.5t24 36.5t9 54.5l43 -8q0 -39 -12.5 -67.5t-33 -47t-48 -27t-58.5 -8.5q-72 0 -112.5 38.5 t-40.5 115.5v390q0 75 37.5 120t115.5 45z" unicode="С" horiz-adv-x="383" glyph-name="afii10035"/>
<glyph d="M181 657v-657h-44v657h-132v39h308v-39h-132z" unicode="Т" horiz-adv-x="319" glyph-name="afii10036"/>
<glyph d="M199 239l122 457h42l-152 -556q-13 -47 -26.5 -76t-28.5 -45t-32.5 -22t-36.5 -6h-23v38h20q29 0 48 20.5t35 73.5l12 41l-162 532h44l135 -457h3z" unicode="У" horiz-adv-x="382" glyph-name="afii10037"/>
<glyph d="M261 0h-43v56q-36 2 -67.5 14t-55 34t-37.5 52.5t-14 69.5v262q0 39 15 69.5t39.5 52t56 33t63.5 11.5v42h43v-42q33 -1 64.5 -12.5t56.5 -32.5t40 -51.5t15 -69.5v-262q0 -39 -15 -69.5t-39.5 -52.5t-56.5 -34t-65 -14v-56zM261 98q59 1 96 35.5t37 92.5v262 q0 29 -10.5 51.5t-28.5 38t-42.5 24t-51.5 10.5v-514zM218 612q-27 -2 -51 -10.5t-42 -24t-28.5 -38t-10.5 -51.5v-262q0 -58 37 -92.5t95 -35.5v514z" unicode="Ф" horiz-adv-x="481" glyph-name="afii10038"/>
<glyph d="M293 0l-120 304l-121 -304h-46l144 354l-140 341h47l116 -294l116 294h47l-142 -341l146 -354h-47z" unicode="Х" horiz-adv-x="347" glyph-name="afii10039"/>
<glyph d="M359 696v-655h35v-171h-39v130h-303v696h43v-655h220v655h44z" unicode="Ц" horiz-adv-x="411" glyph-name="afii10040"/>
<glyph d="M71 696v-233q0 -35 7 -59t22.5 -39t40.5 -21.5t60 -6.5q18 0 44 4.5t49 14.5v340h43v-695h-43v319q-19 -8 -49.5 -13.5t-52.5 -5.5q-82 0 -122 36t-40 126v233h41z" unicode="Ч" horiz-adv-x="383" glyph-name="afii10041"/>
<glyph d="M547 696v-696h-495v696h43v-654h182v654h43v-654h183v654h44z" unicode="Ш" horiz-adv-x="599" glyph-name="afii10042"/>
<glyph d="M547 42h36v-172h-38v130h-493v696h43v-654h182v654h43v-654h183v654h44v-654z" unicode="Щ" horiz-adv-x="601" glyph-name="afii10043"/>
<glyph d="M229 42h89q41 0 68 12t42.5 33t21.5 49.5t6 61.5q0 71 -32.5 110t-107.5 39h-87v-305zM186 0v656h-177v40h220v-308h90q52 0 86.5 -14t55.5 -39t29.5 -60t8.5 -77t-8 -78.5t-28 -63t-54.5 -41.5t-86.5 -15h-136z" unicode="Ъ" horiz-adv-x="528" glyph-name="afii10044"/>
<glyph d="M420 696h43v-696h-43v696zM183 41q41 0 68 12t42.5 33t21.5 49.5t6 61.5q0 72 -32.5 110.5t-107.5 38.5h-87v-305h89zM51 0v696h43v-309h90q52 0 86.5 -14t55.5 -39t29.5 -60t8.5 -77t-8 -78t-28 -62.5t-54.5 -41.5t-87.5 -15h-135z" unicode="Ы" horiz-adv-x="519" glyph-name="afii10045"/>
<glyph d="M176 41q41 0 68 12t42.5 33t21.5 49.5t6 61.5q0 72 -32.5 110.5t-107.5 38.5h-87v-305h89zM44 0v696h43v-309h90q52 0 86.5 -14t55.5 -39t29.5 -60t8.5 -77t-8 -78t-28 -62.5t-54.5 -41.5t-86.5 -15h-136z" unicode="Ь" horiz-adv-x="386" glyph-name="afii10046"/>
<glyph d="M62 129q6 -52 36.5 -74.5t70.5 -22.5q61 0 86.5 36.5t25.5 99.5v166h-175v42h175v171q0 61 -29.5 88t-77.5 27q-42 0 -74.5 -24t-38.5 -73l-42 11q4 31 18 54.5t35 39.5t47.5 24t56.5 8q68 0 108 -37t40 -124v-374q0 -95 -41.5 -134.5t-114.5 -39.5q-28 0 -53.5 7.5 t-45 22.5t-33 38.5t-17.5 56.5z" unicode="Э" horiz-adv-x="379" glyph-name="afii10047"/>
<glyph d="M440 547q0 52 -30 84t-78 32q-26 0 -46 -10t-34 -26.5t-21 -39t-7 -47.5v-396q0 -51 30.5 -81.5t76.5 -30.5q48 0 78.5 31.5t30.5 86.5v397zM483 149q0 -41 -12 -70t-32 -48.5t-48 -28.5t-59 -9q-32 0 -59.5 9t-47.5 27.5t-32 46t-12 65.5v196h-86v-337h-43v696h43v-320 h86v169q0 75 41.5 116t109.5 41q69 0 110 -39t41 -117v-397z" unicode="Ю" horiz-adv-x="528" glyph-name="afii10048"/>
<glyph d="M88 505q0 -76 36 -108t105 -32h85v292h-81q-79 0 -112 -41.5t-33 -110.5zM15 0l45 216q9 45 27 78t56 49q-54 16 -75.5 56.5t-21.5 105.5q0 88 41.5 139.5t139.5 51.5h130v-696h-43v327h-93q-19 0 -37 -4.5t-33.5 -16.5t-28 -34t-19.5 -58l-44 -214h-44z" unicode="Я" horiz-adv-x="410" glyph-name="afii10049"/>
<glyph d="M38 414q14 38 47 60t85 22q63 0 97 -28.5t34 -101.5v-366h-43v44h-1q-24 -33 -54.5 -41.5t-59.5 -8.5q-33 0 -55.5 11.5t-36.5 30.5t-20.5 43.5t-6.5 51.5q0 28 6.5 55.5t22.5 50t42.5 36.5t66.5 14h96v78q0 20 -4 36.5t-14 28.5t-27.5 19t-44.5 7q-29 0 -55 -14t-34 -42 zM171 248q-22 0 -41 -6t-33 -20t-22 -36.5t-8 -54.5q0 -40 20.5 -68.5t71.5 -28.5q43 0 71 23.5t28 69.5v121h-87z" unicode="а" horiz-adv-x="343" glyph-name="afii10065"/>
<glyph d="M186 437q-30 0 -51.5 -15t-34.5 -41q-8 -16 -12 -36t-5 -43l-3 -77v-18q0 -45 2 -73.5t7 -45.5q19 -56 90 -56q34 0 58.5 17t32.5 52q4 16 5 51t1 77v41.5t-0.5 41.5t-2.5 37t-5 28q-8 27 -26.5 43.5t-55.5 16.5zM192 477q51 0 77.5 -23t37.5 -53q4 -11 6 -30.5t3 -42.5 t1 -48.5v-48.5v-10q0 -27 -0.5 -52t-3.5 -57q-3 -35 -16.5 -58t-32.5 -36.5t-42 -19t-45 -5.5q-61 0 -90.5 24.5t-40.5 62.5q-3 12 -5 30t-2.5 39t-1 43.5t-0.5 42.5v120q2 91 10 150t31 97q14 22 32 37.5t40 26.5q34 17 65.5 27.5t63.5 25.5l17 -34q-17 -9 -32.5 -14.5 t-30.5 -11t-31.5 -12t-34.5 -16.5q-19 -11 -34 -25.5t-27 -36.5q-15 -26 -19 -69.5t-6 -89.5h3q11 21 25.5 34.5t29.5 20.5t28.5 9.5t24.5 2.5z" unicode="б" horiz-adv-x="355" glyph-name="afii10066"/>
<glyph d="M45 0v489h127q80 0 113.5 -32.5t33.5 -92.5q0 -35 -11 -62.5t-42 -43.5q35 -14 47.5 -46.5t12.5 -67.5q0 -79 -41 -111.5t-111 -32.5h-129zM88 239v-199h88q33 0 53.5 8.5t32.5 23t16.5 33.5t4.5 41q0 45 -22.5 69t-72.5 24h-100zM88 450v-174h95q52 0 72.5 23.5 t20.5 65.5t-24.5 63.5t-83.5 21.5h-80z" unicode="в" horiz-adv-x="361" glyph-name="afii10067"/>
<glyph d="M89 451v-451h-44v489h246v-38h-202z" unicode="г" horiz-adv-x="307" glyph-name="afii10068"/>
<glyph d="M307 451h-170l-8 -215q-2 -72 -10.5 -121.5t-28.5 -75.5h217v412zM48 -127h-41v165l31 1q13 13 22 29t15 39t9 56t5 80l7 246h255v-450h33v-166h-40v127h-296v-127z" unicode="д" horiz-adv-x="401" glyph-name="afii10069"/>
<glyph d="M88 404q-7 -17 -8.5 -50.5t-2.5 -79.5h185v61q0 23 -2.5 45t-12 39t-27.5 27t-48 10q-25 0 -48 -11t-36 -41zM174 496q60 0 93.5 -30.5t36.5 -87.5q1 -11 1 -21.5v-21.5v-97h-228v-32q0 -32 1.5 -66.5t7.5 -51.5q9 -26 29 -41t54 -15q45 0 66.5 26t24.5 64l43 -8 q-5 -59 -41 -90t-93 -31q-30 0 -52.5 7.5t-37.5 19.5t-24 27.5t-13 32.5q-3 12 -5 31t-2.5 40.5t-1 44.5t-0.5 43q0 27 0.5 54t2 51t4.5 44t7 32q13 35 43 55.5t84 20.5z" unicode="е" horiz-adv-x="342" glyph-name="afii10070"/>
<glyph d="M254 0v231h-62q-35 0 -59 -14.5t-37 -63.5l-38 -153h-43l41 159q10 36 25 61.5t50 33.5q-28 8 -43.5 32.5t-25.5 60.5l-37 142h40l40 -149q6 -23 17 -37t23.5 -22t26.5 -10.5t28 -2.5h54v221h43v-221h54q13 0 27.5 2.5t27 10.5t23.5 22t17 37l40 149h40l-37 -142 q-10 -36 -25.5 -60.5t-43.5 -32.5q35 -8 50 -33.5t25 -61.5l41 -159h-43l-38 153q-13 49 -37 63.5t-59 14.5h-62v-231h-43z" unicode="ж" horiz-adv-x="551" glyph-name="afii10072"/>
<glyph d="M113 277h58q28 0 46.5 20t18.5 70q0 24 -7.5 40.5t-19.5 27t-28 15.5t-34 5q-38 0 -63.5 -19t-29.5 -61l-41 9q5 57 43.5 84t90.5 27q27 0 51 -6t42 -20.5t28.5 -39t10.5 -60.5q0 -16 -2 -32.5t-7.5 -31.5t-15.5 -27t-26 -19v-1q33 -14 42 -45t9 -74q0 -41 -12 -68.5 t-31.5 -44t-44.5 -24t-50 -7.5t-48.5 6t-42 19.5t-30 35t-13.5 53.5l42 6q3 -44 29.5 -62.5t63.5 -18.5q17 0 34 5.5t30.5 17.5t21.5 32.5t8 50.5q0 56 -19 77.5t-50 21.5h-54v38z" unicode="з" horiz-adv-x="320" glyph-name="afii10073"/>
<glyph d="M284 0v410h-1q-50 -102 -99 -205t-100 -205h-42v489h43v-409l199 409h43v-489h-43z" unicode="и" horiz-adv-x="370" glyph-name="afii10074"/>
<glyph d="M284 0v410h-1q-50 -102 -99 -205t-100 -205h-42v489h43v-409l199 409h43v-489h-43zM93 669q5 -32 28.5 -54t54.5 -22q32 0 55.5 20.5t28.5 55.5h36q-2 -19 -10 -38.5t-23 -36t-36.5 -27t-50.5 -10.5q-30 0 -51.5 10.5t-36 27t-22 36.5t-9.5 38h36z" unicode="й" horiz-adv-x="370" glyph-name="afii10075"/>
<glyph d="M40 0v489h43v-221h66q13 0 27.5 2.5t27 10.5t23.5 22t17 37l40 149h40l-37 -142q-10 -36 -25.5 -60.5t-43.5 -32.5q35 -8 50 -33.5t25 -61.5l41 -159h-43l-38 153q-13 49 -37 63.5t-59 14.5h-74v-231h-43z" unicode="к" horiz-adv-x="344" glyph-name="afii10076"/>
<glyph d="M5 15q22 14 37 31t24 41.5t13 59.5t4 86v256h242v-489h-44v451h-158v-225q0 -49 -4.5 -87.5t-16 -68.5t-30.5 -51.5t-47 -36.5z" unicode="л" horiz-adv-x="365" glyph-name="afii10077"/>
<glyph d="M374 387q-18 -39 -35.5 -76t-34.5 -76l-58 -123h-30q-14 31 -28 61l-28 60l-71 156l-1 -1v-388h-43v489h42l145 -314h1l146 314h42v-489h-43v387h-4z" unicode="м" horiz-adv-x="466" glyph-name="afii10078"/>
<glyph d="M272 0v232h-183v-232h-44v489h44v-218h183v218h45v-489h-45z" unicode="н" horiz-adv-x="360" glyph-name="afii10079"/>
<glyph d="M175 457q-26 0 -50 -10.5t-36 -40.5q-8 -20 -10 -62.5t-2 -98.5v-25q0 -48 1.5 -81t7.5 -51q9 -27 30.5 -41.5t58.5 -14.5q33 0 57 18t32 50q4 17 5.5 54t1.5 79q0 22 -0.5 47t-1 48t-2.5 41.5t-5 28.5q-9 30 -32.5 44.5t-54.5 14.5zM176 496q55 0 84 -21t40 -53 q5 -13 7.5 -34.5t4 -47t1.5 -52v-49.5v-15q0 -26 -0.5 -53t-3.5 -59q-3 -35 -16.5 -58t-33 -36.5t-42.5 -19t-45 -5.5q-60 0 -89.5 24.5t-40.5 62.5q-3 12 -5 30.5t-3 40.5t-1 45v43q0 27 0.5 53.5t2 50.5t4.5 43.5t7 31.5q13 35 44 56.5t85 21.5z" unicode="о" horiz-adv-x="349" glyph-name="afii10080"/>
<glyph d="M276 0v452h-186v-452h-44v489h273v-489h-43z" unicode="п" horiz-adv-x="364" glyph-name="afii10081"/>
<glyph d="M188 495q18 0 38 -5t37 -18t29.5 -35.5t15.5 -57.5q3 -32 3.5 -61.5t0.5 -57.5v-14q0 -57 -2 -102t-13 -77q-11 -31 -37.5 -52.5t-78.5 -21.5q-40 0 -66 18.5t-34 36.5h-2v-242h-42v682h42v-46h2q17 25 41.5 39t65.5 14zM178 454q-45 0 -72 -29t-27 -76v-202 q0 -22 6 -42.5t18 -36t30 -25t42 -9.5q30 0 53 16t31 47q3 10 4.5 27.5t2.5 39t1 45v46.5q0 47 -1.5 83.5t-6.5 53.5q-10 35 -30 48.5t-51 13.5z" unicode="р" horiz-adv-x="349" glyph-name="afii10082"/>
<glyph d="M175 496q63 0 96 -33t33 -96q-11 -2 -22 -3.5t-22 -3.5q1 46 -22 71.5t-66 25.5q-27 0 -48.5 -12t-34.5 -41q-8 -19 -10 -65t-2 -106v-13q0 -18 0.5 -37t1.5 -37t2.5 -33t4.5 -24q9 -27 30 -42t54 -15q41 0 65.5 22.5t24.5 72.5l44 -8q-2 -63 -37 -94.5t-97 -31.5 q-30 0 -52.5 7.5t-37.5 19.5t-24 27.5t-13 32.5q-3 12 -5 31t-2.5 41t-1 44.5t-0.5 42.5q0 27 0.5 54t2 51t4.5 43.5t7 31.5q13 35 43 56t84 21z" unicode="с" horiz-adv-x="329" glyph-name="afii10083"/>
<glyph d="M160 451v-451h-42v451h-114v38h271v-38h-115z" unicode="т" horiz-adv-x="279" glyph-name="afii10084"/>
<glyph d="M158 68q14 51 27 105.5t26 106.5l55 209h44l-147 -549q-8 -32 -18 -59q-11 -34 -35.5 -56.5t-65.5 -22.5h-15v38h12q32 0 49 23t27 64q5 19 9.5 37.5t9.5 37.5q-33 122 -65.5 243t-64.5 244h46l52 -210l52 -211h2z" unicode="у" horiz-adv-x="315" glyph-name="afii10085"/>
<glyph d="M196 456q-39 -2 -65 -17t-40 -39q-12 -21 -12 -48q-1 -33 -1 -69v-72v-73q1 -17 4 -31.5t9 -25.5q13 -24 39 -38t66 -16v429zM238 27q38 0 64.5 15.5t40.5 38.5q8 14 11 30.5t3 34.5v204q0 14 -4 27t-10 24q-13 25 -38.5 39t-66.5 16v-429zM238 497q72 -2 112.5 -36.5 t45.5 -91.5q3 -35 3 -73.5v-78.5v-74q-2 -75 -43 -113t-118 -42v-185h-42v185q-75 5 -117.5 44t-42.5 113q0 18 -0.5 36t-0.5 36q0 42 1 81t5 75q5 54 45 88t110 36v195h42v-195z" unicode="ф" horiz-adv-x="436" glyph-name="afii10086"/>
<glyph d="M242 0l-94 212l-95 -212h-47l116 251l-109 238h48l87 -201l88 201h49l-111 -238l116 -251h-48z" unicode="х" horiz-adv-x="295" glyph-name="afii10087"/>
<glyph d="M317 489v-448h32v-168h-39v127h-265v489h44v-448h183v448h45z" unicode="ц" horiz-adv-x="364" glyph-name="afii10088"/>
<glyph d="M298 489v-489h-43v223q-25 -18 -56 -27t-57 -9q-34 0 -56.5 9t-36 24.5t-19 37.5t-5.5 49v182h44v-169q0 -22 2.5 -39t11.5 -29t25 -18.5t43 -6.5q26 0 55 10.5t49 27.5v224h43z" unicode="ч" horiz-adv-x="340" glyph-name="afii10089"/>
<glyph d="M497 489v-489h-451v489h43v-448h159v448h44v-448h161v448h44z" unicode="ш" horiz-adv-x="543" glyph-name="afii10090"/>
<glyph d="M496 489v-448h33v-168h-38v127h-445v489h43v-448h159v448h44v-448h160v448h44z" unicode="щ" horiz-adv-x="550" glyph-name="afii10091"/>
<glyph d="M161 0v451h-152v38h195v-209h74q46 0 76.5 -10.5t48.5 -28.5t25.5 -42.5t7.5 -52.5q0 -30 -7 -56.5t-24.5 -46.5t-48 -31.5t-76.5 -11.5h-119zM204 41h73q34 0 56.5 8.5t36 22.5t18.5 32.5t5 39.5q0 46 -27.5 70.5t-90.5 24.5h-71v-198z" unicode="ъ" horiz-adv-x="462" glyph-name="afii10092"/>
<glyph d="M45 0v489h42v-209h75q46 0 76 -10.5t48 -28.5t25.5 -42.5t7.5 -52.5q0 -30 -7 -56.5t-24 -46.5t-47.5 -31.5t-76.5 -11.5h-119zM364 0v489h44v-489h-44zM87 41h73q34 0 56.5 8.5t36 22.5t18.5 32.5t5 39.5q0 46 -27.5 70.5t-89.5 24.5h-72v-198z" unicode="ы" horiz-adv-x="455" glyph-name="afii10093"/>
<glyph d="M39 0v489h43v-209h74q46 0 76.5 -10.5t48.5 -28.5t25.5 -42.5t7.5 -52.5q0 -30 -7 -56.5t-24.5 -46.5t-47.5 -31.5t-76 -11.5h-120zM82 41h73q34 0 56.5 8.5t36 22.5t18.5 32.5t5 39.5q0 46 -27.5 70.5t-89.5 24.5h-72v-198z" unicode="ь" horiz-adv-x="338" glyph-name="afii10094"/>
<glyph d="M95 269h150q-1 48 -1.5 83.5t-7.5 51.5q-12 30 -33.5 41.5t-49.5 11.5q-35 0 -59.5 -20.5t-27.5 -58.5l-45 9q6 48 43 78.5t91 30.5t82 -20t41 -55q4 -12 6.5 -31.5t3.5 -44t1 -52v-54.5v-42.5t-1 -44.5t-2.5 -41t-4.5 -31q-5 -17 -13.5 -32.5t-23.5 -27.5t-37 -19.5 t-54 -7.5q-58 0 -92.5 27t-40.5 81l22 4l22 4q5 -38 27.5 -57.5t60.5 -19.5t58.5 15t28.5 42q5 16 6 47.5t1 92.5h-151v40z" unicode="э" horiz-adv-x="330" glyph-name="afii10095"/>
<glyph d="M290 456q-25 0 -47.5 -10.5t-34.5 -40.5q-8 -19 -9 -61.5t-2 -98.5v-25q1 -48 2 -81t6 -51q9 -27 29 -41.5t56 -14.5q31 0 53 17t32 50q4 17 5 54.5t1 79.5q0 22 -0.5 47t-1 47.5t-2.5 41t-5 28.5q-8 30 -29.5 44.5t-52.5 14.5zM41 489h43v-219h71q0 23 0.5 45.5t2 42.5 t3.5 36t6 26q12 35 42 55t82 20q53 0 79 -19t38 -48q7 -18 10 -40t4 -45.5t1 -46.5t1 -43v-27q0 -27 -1 -55t-4 -59q-3 -35 -16 -58t-31 -36.5t-40 -19t-44 -5.5q-60 0 -88 24.5t-38 62.5q-3 10 -4 27.5t-2 38.5t-1 43v42h-71v-231h-43v489z" unicode="ю" horiz-adv-x="461" glyph-name="afii10096"/>
<glyph d="M195 451q-32 0 -54 -7.5t-35 -21t-18.5 -32t-5.5 -40.5q0 -47 28 -66.5t84 -19.5h75v187h-74zM38 352q0 30 8 55t26 43t47.5 28.5t73.5 10.5h119v-489h-43v226h-79q-33 0 -55.5 -15t-33.5 -63l-33 -148h-43l36 154q6 29 19 52.5t39 33.5q-81 24 -81 112z" unicode="я" horiz-adv-x="359" glyph-name="afii10097"/>
<glyph d="M79 592v48h42v-48h-42zM225 592v48h42v-48h-42zM88 404q-7 -17 -8.5 -50.5t-2.5 -79.5h185v61q0 23 -2.5 45t-12 39t-27.5 27t-48 10q-25 0 -48 -11t-36 -41zM174 496q60 0 93.5 -30.5t36.5 -87.5q1 -11 1 -21.5v-21.5v-97h-228v-32q0 -32 1.5 -66.5t7.5 -51.5 q9 -26 29 -41t54 -15q45 0 66.5 26t24.5 64l43 -8q-5 -59 -41 -90t-93 -31q-30 0 -52.5 7.5t-37.5 19.5t-24 27.5t-13 32.5q-3 12 -5 31t-2.5 40.5t-1 44.5t-0.5 43q0 27 0.5 54t2 51t4.5 44t7 32q13 35 43 55.5t84 20.5z" unicode="ё" horiz-adv-x="342" glyph-name="afii10071"/>
<glyph d="M198 494q51 0 76.5 -20.5t37.5 -52.5q4 -14 6.5 -34.5t3.5 -44.5t1.5 -49.5t0.5 -49.5v-34q0 -31 -1 -65t-6 -63q-8 -57 -44 -82.5t-87 -25.5h-4v37q32 0 56 15.5t35 49.5q5 16 6 53t1 79q0 24 -0.5 52.5t-1 55t-2.5 48t-5 32.5q-17 56 -83 56q-24 0 -43 -9.5 t-31.5 -25.5t-19 -36.5t-6.5 -41.5v-338h-43v580h-45v33h45v113h43v-113h187v-33h-187v-149h2q16 29 44.5 46t63.5 17z" unicode="ђ" horiz-adv-x="364" glyph-name="afii10099"/>
<glyph d="M89 451v-451h-44v489h246v-38h-202zM128 566l67 151l45 -17l-88 -144z" unicode="ѓ" horiz-adv-x="307" glyph-name="afii10100"/>
<glyph d="M314 106q-5 -57 -39.5 -85t-93.5 -28q-30 0 -52.5 7.5t-37.5 19.5t-24 27.5t-13 32.5q-3 12 -5 31t-2.5 41t-1 44.5t-0.5 42.5q0 27 0.5 54t2 51t4.5 43.5t7 31.5q13 35 43 56t84 21q58 0 90.5 -29t37.5 -83l-43 -11q-3 41 -25.5 62.5t-62.5 21.5q-27 0 -48.5 -12 t-34.5 -41q-7 -16 -9 -52t-3 -84h147v-39h-147q0 -45 2 -83.5t7 -56.5q9 -27 30 -42t54 -15q38 0 62.5 19.5t27.5 62.5z" unicode="є" horiz-adv-x="338" glyph-name="afii10101"/>
<glyph d="M69 125q0 -42 23.5 -67t65.5 -25q53 0 73 25t20 70q0 22 -3.5 37.5t-13.5 28t-28 23t-48 21.5q-39 15 -64 30t-38.5 31.5t-18.5 34.5t-5 38q0 55 32 90t101 35q63 0 97.5 -32.5t34.5 -93.5l-45 -7q0 45 -23.5 69t-65.5 24q-26 0 -43 -7.5t-26.5 -19.5t-13.5 -27t-4 -31 t4 -29t15.5 -24.5t32.5 -22.5t54 -23q38 -14 60 -29t33.5 -32.5t15 -38t3.5 -44.5q0 -30 -7 -55t-23 -43t-41.5 -28t-62.5 -10q-64 0 -98.5 31t-36.5 94z" unicode="ѕ" horiz-adv-x="322" glyph-name="afii10102"/>
<glyph d="M55 0v489h43v-489h-43zM54 608v48h45v-48h-45z" unicode="і" horiz-adv-x="155" glyph-name="afii10103"/>
<glyph d="M55 0v489h43v-489h-43zM-17 585v48h42v-48h-42zM129 585v48h42v-48h-42z" unicode="ї" horiz-adv-x="155" glyph-name="afii10104"/>
<glyph d="M54 656h45v-48h-45v48zM55 489h42v-562q0 -29 -4 -52.5t-15 -40.5t-30 -26.5t-50 -9.5h-13v38h7q40 0 51.5 21.5t11.5 62.5v569z" unicode="ј" horiz-adv-x="149" glyph-name="afii10105"/>
<glyph d="M303 41h73q34 0 56.5 8t35.5 22t18 32t5 39q0 46 -27 71t-90 25h-71v-197zM120 451v-225q0 -49 -4.5 -87.5t-15.5 -68.5t-30 -51.5t-48 -36.5l-20 33q22 14 37 31t24 41.5t13 59.5t4 86v256h223v-209h74q45 0 75.5 -10.5t49 -29t26 -43.5t7.5 -55t-7 -56t-25 -45t-48 -30 t-76 -11h-120v451h-139z" unicode="љ" horiz-adv-x="561" glyph-name="afii10106"/>
<glyph d="M260 0v236h-170v-236h-43v489h43v-212h170v212h45v-212h72q46 0 76.5 -10t49 -28t26 -43t7.5 -54q0 -30 -7 -56t-24.5 -45t-48 -30t-77.5 -11h-119zM305 41h72q34 0 56.5 8t35.5 22t18 32t5 39q0 45 -27 69t-90 24h-70v-194z" unicode="њ" horiz-adv-x="563" glyph-name="afii10107"/>
<glyph d="M89 614h186v-34h-186v-153h1q17 29 46 45.5t64 16.5q34 0 57 -10.5t36.5 -28.5t19.5 -42t6 -51v-357h-44v343q0 44 -18.5 73t-69.5 29q-24 0 -42.5 -9t-31 -24t-19 -35t-6.5 -41v-336h-42v580h-46v34h46v113h43v-113z" unicode="ћ" horiz-adv-x="364" glyph-name="afii10108"/>
<glyph d="M40 0v489h43v-221h66q13 0 27.5 2.5t27 10.5t23.5 22t17 37l40 149h40l-37 -142q-10 -36 -25.5 -60.5t-43.5 -32.5q35 -8 50 -33.5t25 -61.5l41 -159h-43l-38 153q-13 49 -37 63.5t-59 14.5h-74v-231h-43zM145 566l67 151l45 -17l-88 -144z" unicode="ќ" horiz-adv-x="346" glyph-name="afii10109"/>
<glyph d="M78 669q5 -32 28.5 -54t54.5 -22q32 0 55.5 20.5t28.5 55.5h36q-2 -19 -10 -38.5t-23 -36t-36.5 -27t-50.5 -10.5q-30 0 -51.5 10.5t-36 27t-22 36.5t-9.5 38h36zM158 68q14 51 27 105.5t26 106.5l55 209h44l-147 -549q-8 -32 -18 -59q-11 -34 -35.5 -56.5t-65.5 -22.5 h-15v38h12q32 0 49 23t27 64q5 19 9.5 37.5t9.5 37.5q-33 122 -65.5 243t-64.5 244h46l52 -210l52 -211h2z" unicode="ў" horiz-adv-x="315" glyph-name="afii10110"/>
<glyph d="M317 489v-489h-114v-134h-43v134h-115v489h44v-448h184v448h44z" unicode="џ" horiz-adv-x="361" glyph-name="afii10193"/>
<glyph d="M96 656v-656h-43v696h238v116h40v-156h-235z" unicode="Ґ" horiz-adv-x="350" glyph-name="afii10050"/>
<glyph d="M89 451v-451h-44v489h205v112h41v-150h-202z" unicode="ґ" horiz-adv-x="307" glyph-name="afii10098"/>
<glyph d="M250 86q7 17 8.5 50.5t2.5 79.5h-185v-61q0 -23 2.5 -45t12 -39t27.5 -27t48 -10q25 0 48 11t36 41zM164 -6q-60 0 -93.5 30.5t-36.5 87.5q-1 11 -1 21.5v21.5v97h228v32q0 32 -1.5 66.5t-7.5 51.5q-9 26 -29 41t-54 15q-45 0 -66.5 -26t-24.5 -64l-43 8q5 59 41 90 t93 31q30 0 52.5 -7.5t37.5 -19.5t24 -28t13 -32q3 -12 5 -31t2.5 -40.5t1 -44.5t0.5 -43q0 -27 -0.5 -54t-2 -51t-4.5 -44t-7 -32q-13 -35 -43 -55.5t-84 -20.5z" unicode="ә" horiz-adv-x="342" glyph-name="schwacyrillic"/>
</font>
</defs>
</svg>
